<?xml version="1.0" encoding="UTF-8" standalone="no"?>
<!-- Created with Inkscape (http://www.inkscape.org/) -->

<svg
   xmlns:osb="http://www.openswatchbook.org/uri/2009/osb"
   xmlns:dc="http://purl.org/dc/elements/1.1/"
   xmlns:cc="http://creativecommons.org/ns#"
   xmlns:rdf="http://www.w3.org/1999/02/22-rdf-syntax-ns#"
   xmlns:svg="http://www.w3.org/2000/svg"
   xmlns="http://www.w3.org/2000/svg"
   xmlns:sodipodi="http://sodipodi.sourceforge.net/DTD/sodipodi-0.dtd"
   xmlns:inkscape="http://www.inkscape.org/namespaces/inkscape"
   width="55"
   height="55"
   id="svg3827"
   version="1.1"
   inkscape:version="0.48.4 r9939"
   sodipodi:docname="rodion.svg">
  <defs
     id="defs3829">
    <linearGradient
       id="linearGradient3774"
       osb:paint="solid">
      <stop
         style="stop-color:#000000;stop-opacity:1;"
         offset="0"
         id="stop3776" />
    </linearGradient>
  </defs>
  <sodipodi:namedview
     id="base"
     pagecolor="#ffffff"
     bordercolor="#666666"
     borderopacity="1.0"
     inkscape:pageopacity="0.0"
     inkscape:pageshadow="2"
     inkscape:zoom="11.313709"
     inkscape:cx="35.984327"
     inkscape:cy="29.045783"
     inkscape:document-units="px"
     inkscape:current-layer="layer5"
     showgrid="false"
     inkscape:window-width="1307"
     inkscape:window-height="861"
     inkscape:window-x="289"
     inkscape:window-y="37"
     inkscape:window-maximized="0" />
  <metadata
     id="metadata3832">
    <rdf:RDF>
      <cc:Work
         rdf:about="">
        <dc:format>image/svg+xml</dc:format>
        <dc:type
           rdf:resource="http://purl.org/dc/dcmitype/StillImage" />
        <dc:title />
      </cc:Work>
    </rdf:RDF>
  </metadata>
  <g
     inkscape:groupmode="layer"
     id="layer1"
     inkscape:label="background">
    <g
       id="g2508"
       transform="translate(-15.875,-12.625)"
       style="fill:#ffd228;fill-opacity:1">
      <rect
         style="fill:#ffd228;fill-opacity:1;fill-rule:nonzero;stroke:none"
         id="rect3269"
         y="12.625"
         x="15.875"
         height="55"
         width="55" />
    </g>
  </g>
  <g
     inkscape:groupmode="layer"
     id="layer5"
     inkscape:label="logo"
     style="display:inline">
    <g
       id="g3853" />
    <path
       id="path3790"
       style="fill:#5a7de6;fill-opacity:1;stroke:none"
       d="m 27.824698,17.500015 c -1.021799,0.02531 -2.008524,0.141505 -2.941109,0.374382 -0.467003,0.114694 -0.94253,0.228488 -1.439267,0.343183 0,0 -0.393821,-0.193097 -1.001229,0.0312 -2.477892,0.915003 -1.314112,3.993403 -1.314112,3.993403 l -0.06258,2.059098 -0.125154,4.24299 -0.344172,4.0558 -0.531903,2.745464 c -0.228056,0.903839 0.148591,2.209171 1.032517,2.152694 1.069859,-0.06835 2.086639,-0.318374 2.284053,-2.277488 0.13347,-1.310696 -0.447667,-1.82011 -0.03129,-3.931005 0.04562,-0.231266 2.366534,1.309497 3.598166,1.871907 0.998903,0.456138 2.079916,1.272979 3.097552,1.934305 0.819441,0.532527 1.506739,1.45228 2.440495,1.622319 1.090895,0.198654 1.78507,-1.953095 1.251536,-3.307036 -0.407833,-1.03495 -2.415817,-0.776709 -3.31657,-1.559923 l -2.94111,-1.559923 c 1.704164,-0.433176 3.416807,-1.04305 4.974856,-2.183892 2.17134,-1.69106 2.024136,-3.015178 2.53436,-4.430181 0.07955,-1.599944 -0.318125,-2.242328 -0.688345,-3.057449 -0.4613,-0.645228 -1.252723,-1.221803 -2.002457,-1.80951 -1.220612,-0.629097 -2.359284,-1.314129 -4.474242,-1.310336 z m -0.06258,3.119846 c 0,0 2.640956,-0.07308 3.942339,0.842358 0.886489,0.623589 0.875913,1.275407 0.876075,1.279137 -0.013,1.569713 -1.182455,2.542893 -2.34663,3.213441 -1.080158,0.647294 -2.347462,1.045776 -3.692031,1.341534 -1.000512,0.181882 -2.003175,0.306154 -3.003687,0.311985 0.138786,-2.206669 0.337791,-4.407405 0.59448,-6.614073 1.115883,-0.21716 2.405793,-0.264692 3.629454,-0.374382 z M 38.478881,7.2427001 c 0,1.0332 1.931206,1.9123 2.684767,2.4013 1.038443,0.6744999 1.898655,1.4681999 2.770647,2.3168999 0.953945,0.9275 1.502719,1.6964 2.324605,2.7509 0.481709,0.6183 1.64494,2.8251 2.250161,2.8251 C 49.329678,17.5369 50,17.194 50,16.3486 50,15.2019 46.539872,11.3303 45.696382,10.5096 44.768884,9.6058001 41.074184,6.1871001 39.698788,6.1871001 c -0.545895,0 -1.219907,0.4767 -1.219907,1.0556 z M 5.542189,14.7646 c 0,0.6386 0.428617,1.0557 1.08428,1.0557 1.2573076,0 2.0101646,-1.7212 2.6563626,-2.5598 C 10.53425,11.636 12.75209,9.3090001 14.677405,8.4827001 c 0.793728,-0.3395 2.792473,-1.3333 2.792473,-2.2956 0,-0.4789 -0.160798,-0.4631 -0.271155,-0.9241 -0.798219,-0.064 -0.282585,-0.263 -0.813231,-0.263 -2.210681,0 -10.843303,7.6983999 -10.843303,9.7645999 z m 36.228872,33.2939 c 1.08473,-0.7667 1.773295,-1.3411 2.705422,-2.2484 0.704035,-0.6857 4.439246,-4.5372 4.439246,-5.3117 0,-0.9522 -0.304402,-1.4514 -1.355542,-1.4514 -0.693064,0 -1.876493,2.073 -2.404374,2.6734 -1.628776,1.8526 -3.165658,3.4085 -5.267258,4.7699 -0.670895,0.4339 -2.764994,1.3512 -2.764994,2.1899 0,0.7251 0.349313,1.3198 1.2198,1.3198 0.887109,0 2.664789,-1.4019 3.4277,-1.9415 z M 12.18369,27.8299 c 0,-4.038 1.97993,-7.8198 4.099872,-9.8647 1.61504,-1.5581 1.986384,-1.8898 4.079207,-3.0229 4.590235,-2.4834 9.922603,-1.9168 14.518492,0.29 2.671375,1.2838 4.676468,3.7435 6.061787,6.2392 3.099297,5.5816 1.370889,12.6809 -3.039839,17.0146 -2.94334,2.8925 -6.501824,3.9481 -10.400722,4.1583 C 23.184438,42.1093 19.958874,41.5529 16.758342,38.4197 13.859447,35.5823 12.18369,31.8365 12.18369,27.8299 z m 0.779526,13.4936 c 1.371935,1.3356 3.402651,3.0308 5.223156,3.8886 1.392265,0.6554 5.264264,2.0168 7.144906,2.0168 l 2.710977,0 c 10.324764,0 19.246891,-8.8418 19.246891,-18.8717 l 0,-1.5829 c 0,-2.9476 -1.187928,-5.2218 -2.016743,-7.2746 -0.778716,-1.928 -2.568061,-3.9863 -3.980753,-5.3612 -2.778263,-2.7059 -7.771706,-5.5759999 -13.249395,-5.5759999 -6.145598,0 -12.260257,2.2831999 -16.155915,7.1003999 -2.3582204,2.9161 -4.4466494,7.0194 -4.4466494,12.167 0,5.024 1.841063,9.9086 5.5235254,13.4936 z m 3.828945,7.3567 c 0,-1.5896 -1.737979,-1.8695 -2.792351,-2.5598 -2.0052,-1.3119 -3.961463,-3.0038 -5.3966514,-4.907 C 8.0222996,40.4422 7.1116296,38.6513 6.084271,38.6513 5.160455,38.6513 5,39.4192 5,40.1027 c 0,0.8004 3.8358736,4.997 4.6083636,5.5422 1.0403994,0.7352 4.7098214,3.9594 6.0994114,3.9594 0.408869,0 1.084386,-0.5385 1.084386,-0.9241 z" />
  </g>
</svg>
