<?xml version="1.0" encoding="UTF-8" standalone="no"?>
<!-- Created with Inkscape (http://www.inkscape.org/) -->

<svg
   xmlns:dc="http://purl.org/dc/elements/1.1/"
   xmlns:cc="http://creativecommons.org/ns#"
   xmlns:rdf="http://www.w3.org/1999/02/22-rdf-syntax-ns#"
   xmlns:svg="http://www.w3.org/2000/svg"
   xmlns="http://www.w3.org/2000/svg"
   xmlns:xlink="http://www.w3.org/1999/xlink"
   xmlns:sodipodi="http://sodipodi.sourceforge.net/DTD/sodipodi-0.dtd"
   xmlns:inkscape="http://www.inkscape.org/namespaces/inkscape"
   version="1.0"
   width="55"
   height="55"
   id="svg2381"
   sodipodi:version="0.32"
   inkscape:version="0.48.4 r9939"
   sodipodi:docname="ax12off.svg"
   inkscape:output_extension="org.inkscape.output.svg.inkscape">
  <metadata
     id="metadata3470">
    <rdf:RDF>
      <cc:Work
         rdf:about="">
        <dc:format>image/svg+xml</dc:format>
        <dc:type
           rdf:resource="http://purl.org/dc/dcmitype/StillImage" />
        <dc:title />
      </cc:Work>
    </rdf:RDF>
  </metadata>
  <sodipodi:namedview
     inkscape:window-height="744"
     inkscape:window-width="1301"
     inkscape:pageshadow="2"
     inkscape:pageopacity="0.0"
     guidetolerance="10.0"
     gridtolerance="10.0"
     objecttolerance="10.0"
     borderopacity="1.0"
     bordercolor="#666666"
     pagecolor="#ffffff"
     id="base"
     showgrid="false"
     inkscape:zoom="8"
     inkscape:cx="-4.25"
     inkscape:cy="24.941406"
     inkscape:window-x="65"
     inkscape:window-y="24"
     inkscape:current-layer="svg2381"
     inkscape:window-maximized="1"
     inkscape:snap-grids="false" />
  <defs
     id="defs2383">
    <linearGradient
       inkscape:collect="always"
       id="linearGradient3768">
      <stop
         style="stop-color:#290003;stop-opacity:1;"
         offset="0"
         id="stop3770" />
      <stop
         style="stop-color:#290003;stop-opacity:0;"
         offset="1"
         id="stop3772" />
    </linearGradient>
    <linearGradient
       inkscape:collect="always"
       id="linearGradient4044">
      <stop
         style="stop-color:#912929;stop-opacity:1;"
         offset="0"
         id="stop4046" />
      <stop
         style="stop-color:#912929;stop-opacity:0;"
         offset="1"
         id="stop4048" />
    </linearGradient>
    <linearGradient
       inkscape:collect="always"
       id="linearGradient4036">
      <stop
         style="stop-color:#000000;stop-opacity:1;"
         offset="0"
         id="stop4038" />
      <stop
         style="stop-color:#000000;stop-opacity:0;"
         offset="1"
         id="stop4040" />
    </linearGradient>
    <inkscape:perspective
       sodipodi:type="inkscape:persp3d"
       inkscape:vp_x="0 : 250.18124 : 1"
       inkscape:vp_y="0 : 1000 : 0"
       inkscape:vp_z="487.29123 : 250.18124 : 1"
       inkscape:persp3d-origin="243.64561 : 166.7875 : 1"
       id="perspective3472" />
    <inkscape:perspective
       id="perspective2505"
       inkscape:persp3d-origin="27.5 : 18.333333 : 1"
       inkscape:vp_z="55 : 27.5 : 1"
       inkscape:vp_y="0 : 1000 : 0"
       inkscape:vp_x="0 : 27.5 : 1"
       sodipodi:type="inkscape:persp3d" />
    <linearGradient
       inkscape:collect="always"
       xlink:href="#linearGradient4036"
       id="linearGradient4042"
       x1="5.625"
       y1="36.9375"
       x2="46.171875"
       y2="36.9375"
       gradientUnits="userSpaceOnUse"
       gradientTransform="translate(1.75,-9)" />
    <linearGradient
       inkscape:collect="always"
       xlink:href="#linearGradient4044"
       id="linearGradient4050"
       x1="6.875"
       y1="27.9375"
       x2="48.421875"
       y2="27.9375"
       gradientUnits="userSpaceOnUse" />
    <linearGradient
       inkscape:collect="always"
       xlink:href="#linearGradient3768"
       id="linearGradient3776"
       x1="5.4848633"
       y1="43.109375"
       x2="49.565918"
       y2="43.109375"
       gradientUnits="userSpaceOnUse" />
  </defs>
  <g
     inkscape:groupmode="layer"
     id="layer3"
     inkscape:label="fondo">
    <g
       id="g2508"
       transform="matrix(0.81818182,0,0,0.81818182,-7.9886364,-5.3295456)">
      <rect
         style="fill:#282828;fill-opacity:1;fill-rule:nonzero;stroke:none"
         id="rect3269"
         y="12.625"
         x="15.875"
         height="55"
         width="55" />
    </g>
  </g>
  <g
     inkscape:label="fondo copia"
     id="g3006"
     inkscape:groupmode="layer">
    <g
       transform="matrix(0.81818182,0,0,0.81818182,-7.9886364,-5.3295456)"
       id="g3008">
      <rect
         width="55"
         height="55"
         x="15.875"
         y="12.625"
         id="rect3010"
         style="fill:#282828;fill-opacity:1;fill-rule:nonzero;stroke:none" />
    </g>
  </g>
  <text
     sodipodi:linespacing="125%"
     id="text2998"
     y="49.417969"
     x="5.8520508"
     style="font-size:40px;font-style:normal;font-weight:normal;line-height:125%;letter-spacing:0px;word-spacing:0px;fill:#ff0000;fill-opacity:1;stroke:url(#linearGradient3776);stroke-width:0.30000001;stroke-miterlimit:4;stroke-opacity:1;stroke-dasharray:none;stroke-dashoffset:0;font-family:Sans"
     xml:space="preserve"><tspan
       style="font-size:17px;font-style:normal;font-variant:normal;font-weight:normal;font-stretch:normal;writing-mode:lr-tb;fill:#ff0000;fill-opacity:1;stroke:#ffffff;stroke-width:0.30000001;stroke-miterlimit:4;stroke-opacity:1;stroke-dasharray:none;stroke-dashoffset:0;font-family:KacstQurn;-inkscape-font-specification:KacstQurn"
       y="49.417969"
       x="5.8520508"
       id="tspan3000"
       sodipodi:role="line" /></text>
  <path
     style="fill:#000000;fill-opacity:1;fill-rule:nonzero;stroke:#ffffff;stroke-width:1.50499999999999967;stroke-miterlimit:4;stroke-opacity:1;stroke-dasharray:none;stroke-dashoffset:0"
     d="m 25.413243,46.762484 c -0.613184,-0.151795 -1.210724,-0.362724 -1.327859,-0.468732 -0.649892,-0.588146 -2.296015,-0.923804 -4.530477,-0.923804 -1.712682,0 -2.952393,-0.165617 -4.187069,-0.559366 -0.60696,-0.193565 -0.810973,-0.430696 -0.810973,-0.942626 0,-0.348883 -0.25379,-0.896342 -0.670191,-1.445706 -0.150475,-0.198517 -0.312207,-0.515657 -0.359403,-0.704753 -0.08844,-0.354297 -0.629738,-0.678859 -1.132198,-0.678859 -0.236958,0 -0.244494,-0.0685 -0.244494,-2.223368 l 0,-2.223366 0.492919,-0.251468 c 0.543246,-0.277144 0.542583,-0.28904 -0.03223,-0.576077 l -0.400544,-0.200017 0,-2.225812 0,-2.225812 0.511337,-0.231147 c 0.596752,-0.269759 0.63522,-0.373578 0.180472,-0.487069 -0.721568,-0.180083 -0.751965,-0.277856 -0.751965,-2.41876 0,-1.076182 0.03488,-2.047611 0.07753,-2.15873 0.04264,-0.111116 0.313344,-0.303115 0.60157,-0.426663 0.631225,-0.270575 0.665232,-0.436421 0.11081,-0.54043 -0.781543,-0.146618 -0.824536,-0.285727 -0.768125,-2.485192 0.02842,-1.1074 0.108234,-2.065194 0.18353,-2.201867 0.07329,-0.133044 0.18963,-0.891023 0.258531,-1.684399 0.13455,-1.549343 0.341319,-2.283882 1.015678,-3.608157 0.235878,-0.463209 0.494844,-1.112906 0.575476,-1.443771 0.323524,-1.327484 1.085267,-2.383037 2.002745,-2.775215 0.552356,-0.236106 7.370586,-2.065082 9.592723,-2.5732302 2.250309,-0.5145886 3.798875,-0.5040247 8.083809,0.055152 4.072876,0.5314995 4.669656,0.7006351 5.53878,1.5697583 0.372433,0.3724319 0.785924,0.9455529 0.966045,1.3389839 0.306448,0.669371 0.317009,0.773665 0.39323,3.882328 0.07365,3.003813 0.0941,3.220353 0.342624,3.627977 0.169315,0.277715 0.436721,0.501229 0.7441,0.621971 l 0.479806,0.188472 0,2.211517 0,2.211517 -0.547618,0.266053 c -0.58847,0.285899 -0.610336,0.428642 -0.08584,0.560281 0.625274,0.156934 0.63346,0.188164 0.63346,2.417163 l 0,2.083257 -0.602173,0.327743 c -0.331199,0.18026 -0.579118,0.350803 -0.550934,0.378985 0.02817,0.02818 0.229922,0.141248 0.448314,0.251258 0.226796,0.114243 0.432111,0.329002 0.478781,0.500802 0.129143,0.475396 0.118502,3.601317 -0.0131,3.847209 -0.06533,0.122082 -0.308971,0.339504 -0.541413,0.483161 -0.232442,0.143657 -0.421449,0.297385 -0.420018,0.341617 0.0016,0.04424 0.176264,0.161635 0.388511,0.260894 0.225466,0.105441 0.419476,0.305522 0.466656,0.481257 0.124606,0.464102 0.118771,3.436547 -0.0074,3.768385 -0.06323,0.166314 -0.424471,0.484673 -0.82833,0.730005 -0.862666,0.524042 -1.617966,1.255361 -2.096759,2.030181 -0.435683,0.705062 -0.913347,0.992786 -2.858169,1.721644 -0.82716,0.309995 -1.911578,0.767837 -2.409822,1.017428 -1.213055,0.607673 -2.947711,1.26971 -4.093167,1.562171 -1.280442,0.326925 -2.840775,0.307764 -4.297187,-0.05277 z m 2.557058,0.05381 c 0.04003,-0.06476 -0.04154,-0.272354 -0.181263,-0.461329 -0.188517,-0.254985 -0.244233,-0.480596 -0.216057,-0.874855 0.03372,-0.471492 0.07331,-0.535367 0.352032,-0.567714 0.193103,-0.02241 0.447969,0.07225 0.661728,0.245785 0.964735,0.783171 0.789838,0.792004 2.892762,-0.146083 1.038102,-0.463084 2.293121,-0.953265 2.788937,-1.089288 0.886558,-0.243223 1.681319,-0.580383 0.922305,-0.391265 -0.198519,0.04946 -0.577506,0.09081 -0.842198,0.09189 -0.450143,0.0018 -0.4836,-0.02204 -0.517482,-0.369234 -0.04418,-0.452815 0.07798,-0.561463 1.068653,-0.950451 l 0.772284,-0.303235 -0.601571,0.0757 c -0.330861,0.04163 -0.872279,0.177693 -1.203141,0.302358 -0.330865,0.124664 -0.880027,0.259943 -1.220365,0.300618 -0.465712,0.05566 -0.612007,0.120206 -0.591354,0.26091 0.01507,0.102824 0.13022,0.223008 0.255847,0.267074 0.175484,0.06155 0.121483,0.10018 -0.233061,0.166693 -0.506112,0.09495 -0.58607,0.05874 -0.639206,-0.289448 -0.04517,-0.295968 0.289955,-0.480118 0.886224,-0.486976 0.2525,-0.0029 0.675653,-0.08487 0.940345,-0.182144 0.264689,-0.09727 1.04974,-0.312752 1.744555,-0.47884 1.460297,-0.34907 2.887541,-0.781923 2.887541,-0.875732 0,-0.0356 -0.16141,-0.204018 -0.358687,-0.374268 -0.483435,-0.417209 -0.738857,-1.343777 -0.456963,-1.657704 0.106642,-0.118761 0.2851,-0.444965 0.396572,-0.724897 0.187324,-0.470398 0.188087,-0.5518 0.01008,-1.074181 -0.105922,-0.310868 -0.188934,-0.704459 -0.184469,-0.874646 0.0077,-0.292479 0.214257,0.299051 0.426509,1.221283 0.08074,0.350833 -0.20452,1.212007 -0.516698,1.559832 -0.15312,0.170607 -0.158746,0.276218 -0.03524,0.661729 0.146781,0.458187 0.549366,1.000135 0.742946,1.000135 0.05634,0 0.01981,-0.159735 -0.08113,-0.354968 -0.267695,-0.517666 -0.228872,-0.846829 0.197346,-1.67325 l 0.380906,-0.738561 -0.320746,-0.947243 c -0.259971,-0.767737 -0.320751,-1.167535 -0.320751,-2.109721 0,-1.001481 0.04165,-1.244685 0.300785,-1.75605 0.369358,-0.728896 0.37668,-1.066842 0.03726,-1.719271 -0.213976,-0.411298 -0.269021,-0.742715 -0.292743,-1.762588 -0.02757,-1.184925 -0.0092,-1.293925 0.323426,-1.925027 0.436588,-0.828224 0.442098,-1.194899 0.02933,-1.95326 -0.300644,-0.552382 -0.313504,-0.633515 -0.179724,-1.133714 0.119853,-0.44811 0.113608,-0.597718 -0.03713,-0.889197 -0.259979,-0.502746 -0.226129,-0.703331 0.242959,-1.439643 0.504436,-0.791801 0.534075,-1.308886 0.114097,-1.99076 -0.426452,-0.692383 -0.388728,-1.080215 0.158284,-1.627226 0.349962,-0.349964 0.589758,-0.476001 1.031715,-0.542277 0.353761,-0.05305 0.532765,-0.129364 0.464217,-0.197911 -0.289308,-0.289309 -2.287056,0.833611 -2.616524,1.470731 -0.164697,0.318485 -0.164713,0.392023 -1.2e-4,0.710237 0.100955,0.195233 0.176187,0.506545 0.167177,0.691807 -0.01563,0.321581 -0.01861,0.323214 -0.06583,0.03605 -0.02721,-0.165432 -0.140415,-0.476744 -0.251603,-0.691806 -0.191374,-0.370161 -0.190137,-0.413349 0.02323,-0.809573 0.429852,-0.798185 2.368702,-1.82696 2.862243,-1.518739 0.204978,0.128011 0.215535,-0.0086 0.215105,-2.784021 l -4.02e-4,-2.918639 -0.229741,0.376772 c -0.187637,0.307716 -0.424616,0.444065 -1.292929,0.743902 -0.584751,0.201921 -1.604596,0.561053 -2.266323,0.798072 -0.661732,0.237018 -1.283706,0.41599 -1.382173,0.397715 -0.09847,-0.01828 0.06395,-0.107566 0.360942,-0.198421 0.296984,-0.09085 1.081388,-0.366767 1.743116,-0.613138 0.661727,-0.246371 1.500919,-0.550448 1.864868,-0.675728 0.526206,-0.181131 0.70351,-0.311453 0.865732,-0.636336 0.194075,-0.388673 0.192821,-0.430479 -0.02584,-0.859053 -0.126406,-0.247773 -0.38063,-0.569748 -0.564947,-0.715499 l -0.335122,-0.265 0.469401,0.25856 0.469405,0.258561 -0.214619,-0.337559 C 39.206058,9.8770943 38.563939,9.4908631 37.672771,9.497765 c -0.864354,0.00666 -2.744425,0.4516201 -8.618021,2.039481 -0.792752,0.214312 -2.179108,0.73923 -1.985183,0.751654 0.122409,0.0078 0.103058,0.04483 -0.06016,0.114964 -0.205765,0.08842 -0.210121,0.104627 -0.03006,0.111859 0.115801,0.0046 0.210552,0.05895 0.210552,0.120662 0,0.06171 0.111581,0.147621 0.247962,0.190907 0.136377,0.04329 0.308192,0.210894 0.381808,0.372465 0.09752,0.214025 0.160341,0.252014 0.231453,0.139957 0.07144,-0.112589 0.0981,-0.09738 0.09945,0.05674 7.95e-4,0.115802 0.08196,0.21055 0.179876,0.21055 0.09792,0 0.331276,0.268306 0.518562,0.596235 l 0.340527,0.596236 -0.0072,-0.566157 c -0.0069,-0.541717 0.0084,-0.567915 0.353717,-0.606881 0.444721,-0.05018 0.661727,-0.219204 0.661727,-0.515422 0,-0.314235 0.163006,-0.283637 0.748517,0.140507 0.452253,0.327609 0.569971,0.359035 1.111867,0.29682 0.333333,-0.03827 0.679064,-0.0207 0.768289,0.03904 0.474517,0.317703 -0.344867,0.948318 -0.834708,0.642407 -0.352876,-0.220377 -0.470502,-0.07634 -0.470502,0.576155 l 0,0.583161 1.353532,-0.406165 c 0.744446,-0.22339 1.461817,-0.404366 1.594163,-0.402167 0.132347,0.0022 -0.409067,0.195885 -1.20314,0.430415 -0.794074,0.23453 -1.494382,0.473914 -1.556243,0.531964 -0.06186,0.05805 -0.152645,0.498891 -0.201751,0.979649 l -0.08928,0.874105 0.03291,-0.926804 c 0.02962,-0.83337 0.0127,-0.915982 -0.167663,-0.819453 -0.154437,0.08265 -0.248641,0.026 -0.409469,-0.246259 -0.114885,-0.194486 -0.246427,-0.352214 -0.292318,-0.350509 -0.04589,0.0017 -0.272927,0.282167 -0.504533,0.623245 l -0.421099,0.620143 -0.0419,1.675028 c -0.02303,0.921265 -0.0058,1.915885 0.03838,2.210269 0.08773,0.585001 0.199729,0.666034 1.116432,0.807729 0.495366,0.07657 0.51171,0.06866 0.523329,-0.253248 0.01025,-0.283644 0.02343,-0.295813 0.09023,-0.08313 0.09468,0.301484 0.522718,0.868982 1.130992,1.499472 0.452366,0.468887 0.617111,0.764672 0.261538,0.469575 -0.112144,-0.09307 -0.222769,-0.111384 -0.270709,-0.04481 -0.04458,0.06192 -0.397163,0.270611 -0.783512,0.463762 -0.655985,0.327956 -0.73159,0.340546 -1.142984,0.190324 -0.242296,-0.08847 -0.630032,-0.19912 -0.861637,-0.245877 -0.231602,-0.04676 -0.515846,-0.124661 -0.631647,-0.173117 -0.122002,-0.05105 -0.210552,-0.0355 -0.210552,0.03698 0,0.0688 0.112071,0.16065 0.249052,0.204125 0.208015,0.06602 0.243023,0.161516 0.212488,0.5796 -0.03203,0.43839 -0.0036,0.50529 0.22981,0.538688 0.306552,0.04388 0.752419,0.55694 0.752419,0.865802 0,0.365091 -0.557127,1.708539 -0.754288,1.818876 -0.111002,0.06212 -0.31457,0.05818 -0.492662,-0.0095 -0.257525,-0.09792 -0.309086,-0.202813 -0.340396,-0.692462 l -0.03692,-0.577088 -0.159324,0.661728 c -0.08763,0.363951 -0.18476,1.419707 -0.215849,2.346126 l -0.05653,1.684398 0.248802,-0.451178 c 0.246371,-0.446764 0.603998,-0.611609 0.603998,-0.278404 0,0.09502 0.218279,0.295452 0.485062,0.445391 0.640613,0.360045 0.704511,0.668924 0.328177,1.586333 -0.35536,0.86628 -0.547779,1.028427 -0.984367,0.829506 -0.258459,-0.117761 -0.310129,-0.221917 -0.310129,-0.625141 0,-0.266109 -0.0516,-0.483836 -0.114659,-0.483836 -0.244274,0 -0.365428,0.986012 -0.369583,3.007854 -0.0032,1.60744 -0.03605,2.050855 -0.138415,1.874492 -0.177509,-0.305825 -0.05925,-4.387116 0.137788,-4.755286 0.216471,-0.404477 0.664111,-0.288359 0.669729,0.173729 0.01117,0.91711 0.528621,0.91082 0.881269,-0.01071 0.14153,-0.36984 0.257327,-0.758102 0.257327,-0.862804 0,-0.225362 -0.342183,-0.631203 -0.529981,-0.628576 -0.07246,9.4e-4 -0.05402,0.05103 0.04099,0.111145 0.143157,0.09059 0.145781,0.141777 0.01535,0.298942 -0.08657,0.104303 -0.231972,0.189641 -0.32313,0.189641 -0.206894,0 -0.219991,-0.441089 -0.01535,-0.516962 0.108106,-0.04008 0.08714,-0.119012 -0.07458,-0.280732 -0.159842,-0.159844 -0.240962,-0.181902 -0.280197,-0.07619 -0.119373,0.321627 -0.484941,0.66758 -0.618329,0.585144 -0.259106,-0.160137 -0.04308,-4.009944 0.260091,-4.635254 0.249257,-0.514099 0.442311,-0.445431 0.442311,0.157327 0,0.417872 0.05501,0.576645 0.232719,0.671756 0.381008,0.203909 0.425183,0.160791 0.727033,-0.709682 0.249304,-0.71895 0.268413,-0.880016 0.138302,-1.165583 l -0.150978,-0.331355 -0.145696,0.29224 c -0.187062,0.375213 -0.560752,0.463678 -0.560752,0.132748 0,-0.131683 0.06767,-0.264794 0.150394,-0.295801 0.104412,-0.03914 0.07828,-0.111745 -0.08548,-0.237474 -0.208011,-0.159709 -0.217882,-0.220573 -0.08359,-0.51532 0.139978,-0.307216 0.125803,-0.355335 -0.175407,-0.595513 -0.40392,-0.322075 -0.331309,-0.739442 0.1053,-0.605269 0.148087,0.04551 0.512883,0.135049 0.810658,0.198983 0.29778,0.06393 0.635429,0.168197 0.750334,0.231695 0.114905,0.0635 0.272172,0.115452 0.349489,0.115452 0.203981,0 1.295709,-0.525938 1.301532,-0.627012 0.0028,-0.04708 -0.225171,-0.144499 -0.506406,-0.21649 -0.746306,-0.19104 -0.812122,-0.219536 -0.812122,-0.35163 0,-0.06592 0.114097,-0.180919 0.253549,-0.255551 0.350284,-0.187467 0.177019,-0.312513 -0.724384,-0.522797 -0.423824,-0.09887 -0.815289,-0.250235 -0.86992,-0.336363 -0.05463,-0.08613 -0.100156,-1.162501 -0.101169,-2.39194 l -0.002,-2.235343 0.455013,-0.651288 c 0.554246,-0.793338 0.782335,-0.863843 1.066668,-0.329727 l 0.212139,0.398503 0.09468,-0.721885 c 0.05209,-0.397041 0.120319,-0.789139 0.151637,-0.871333 0.03131,-0.0822 -0.09402,-0.227514 -0.278541,-0.322932 -0.184518,-0.09542 -0.405852,-0.258269 -0.49185,-0.361891 -0.21316,-0.25684 -0.367525,-0.236684 -0.367525,0.04799 0,0.265383 -0.331328,0.48549 -0.730811,0.48549 -0.251024,0 -0.261521,0.03728 -0.194207,0.689476 0.04633,0.448871 0.03187,0.62731 -0.04149,0.511335 -0.0991,-0.156728 -0.113104,-0.156447 -0.116508,0.0023 -0.002,0.09926 -0.119563,-0.009 -0.260963,-0.240629 -0.141416,-0.231597 -0.339088,-0.554877 -0.439288,-0.718392 L 28.35247,13.794433 28.222008,14.25942 c -0.186102,0.663293 -0.585756,0.916332 -1.308862,0.828696 -0.52044,-0.06307 -0.600518,-0.115345 -0.812122,-0.530126 -0.369527,-0.724333 -0.292757,-1.251397 0.272846,-1.873147 0.235806,-0.259212 0.23577,-0.261027 -0.0071,-0.391021 -0.370193,-0.198122 -0.49349,-0.163529 -0.875776,0.245711 -0.317467,0.339848 -0.404011,0.370395 -0.893193,0.315258 -0.442575,-0.04989 -0.51726,-0.03165 -0.408271,0.09968 0.171349,0.206463 0.04398,0.411897 -0.255365,0.411897 -0.295955,0 -0.29284,0.06003 0.02636,0.508286 0.210978,0.296287 0.233616,0.407011 0.120318,0.588433 -0.332007,0.531626 -0.05658,0.621402 0.49152,0.16021 0.460227,-0.387256 1.093425,-0.374833 1.150101,0.02256 0.04127,0.289415 -0.473697,0.765848 -0.827795,0.765848 -0.119518,0 -0.247203,0.04837 -0.283741,0.107503 -0.03653,0.05912 0.117392,0.668701 0.342078,1.35461 0.224689,0.685909 0.475819,1.598542 0.558067,2.028074 0.08225,0.429532 0.215607,0.91632 0.296353,1.081752 0.207903,0.425958 0.03741,2.512958 -0.277565,3.397333 -0.362112,1.016778 -1.004425,2.002342 -1.798756,2.760005 -0.864471,0.824564 -1.438082,1.124561 -2.846434,1.488668 l -1.094232,0.282899 1.142988,0.0045 c 1.436218,0.0056 2.165067,-0.187587 3.335941,-0.884393 0.598118,-0.35595 1.068182,-0.552033 1.323362,-0.552033 l 0.395754,0 -0.03103,7.306308 -0.03103,7.30631 -0.60157,0.09682 c -0.733077,0.117989 -1.022673,0.419585 -1.022673,1.065043 0,0.463244 0.0046,0.467928 0.466527,0.467928 0.278159,0 0.530145,0.07666 0.624091,0.189857 0.206976,0.249387 1.245612,0.772657 1.533649,0.772657 0.27351,0 0.56711,-0.313582 0.67589,-0.721886 0.07415,-0.278343 0.06914,-0.282832 -0.06728,-0.06016 -0.37848,0.617852 -0.972741,0.706622 -1.539251,0.229934 -0.294842,-0.248093 -0.370173,-0.405369 -0.370173,-0.772813 0,-0.994261 0.988847,-1.547045 1.665371,-0.930971 l 0.297265,0.270707 -0.22184,-0.385307 c -0.220241,-0.382523 -0.219566,-0.389909 0.09342,-1.022668 0.269905,-0.545663 0.327241,-0.859445 0.39853,-2.180912 0.06537,-1.211823 0.122336,-1.558539 0.265066,-1.613309 0.317066,-0.121669 0.567817,0.152971 0.630353,0.690415 0.03677,0.31617 0.143269,0.56845 0.274133,0.649507 0.25778,0.159668 0.355243,0.03652 0.63831,-0.806501 0.238796,-0.711178 0.08843,-1.191859 -0.441507,-1.411365 -0.192841,-0.07988 -0.354134,-0.233412 -0.358422,-0.341186 -0.0043,-0.107774 -0.126114,0.101825 -0.270709,0.465775 -0.192374,0.484207 -0.272895,0.591583 -0.300138,0.400257 -0.02049,-0.143807 0.07537,-0.482191 0.212995,-0.751963 0.25174,-0.493453 0.485966,-0.643701 0.485966,-0.311729 0,0.09832 0.211694,0.318855 0.47043,0.490079 0.258733,0.171223 0.501595,0.435489 0.539685,0.58726 0.08756,0.348872 -0.219376,1.39944 -0.515833,1.765546 -0.198797,0.245502 -0.262535,0.26141 -0.540305,0.134851 -0.247918,-0.112959 -0.314919,-0.228734 -0.314919,-0.54417 0,-0.416564 -0.278775,-0.92989 -0.425379,-0.783284 -0.04626,0.04626 -0.122878,0.780731 -0.17026,1.632152 -0.07183,1.290856 -0.132113,1.629829 -0.362838,2.040357 l -0.276701,0.492318 0.256647,0.530162 c 0.141155,0.291588 0.256646,0.64672 0.256646,0.789183 0,0.18807 0.05277,0.238777 0.192617,0.185111 0.105934,-0.04066 0.245985,0.0017 0.311222,0.09401 0.08609,0.121881 0.0997,0.08545 0.04965,-0.132861 -0.03793,-0.165432 -0.06969,-0.47994 -0.0706,-0.698907 -7.96e-4,-0.218968 -0.05189,-0.367069 -0.113293,-0.329117 -0.13571,0.08387 -0.294922,-0.364895 -0.189799,-0.534983 0.116054,-0.18778 0.421762,-0.143296 0.421762,0.06137 0,0.132984 0.07887,0.162969 0.289581,0.110084 0.159268,-0.03997 0.405756,-0.0105 0.547747,0.06549 l 0.25817,0.138167 -0.249409,-0.488879 c -0.137173,-0.268884 -0.200734,-0.48888 -0.141244,-0.48888 0.105903,0 0.432713,0.664634 0.443705,0.902356 0.0032,0.06618 0.0773,0.250831 0.164971,0.410353 0.13231,0.240734 0.13233,0.402918 10e-5,0.95411 -0.08762,0.36524 -0.273614,0.796962 -0.413322,0.95938 -0.218039,0.253488 -0.291258,0.275376 -0.517,0.154563 -0.207328,-0.110961 -0.262985,-0.107865 -0.262985,0.01463 0,0.08545 -0.297775,0.442805 -0.661727,0.794114 -0.363949,0.351309 -0.661727,0.592575 -0.661727,0.536146 0,-0.05643 0.272167,-0.370671 0.604817,-0.698318 0.628882,-0.619429 0.642682,-0.672275 0.40021,-1.532557 -0.0864,-0.306518 -0.243763,-0.155648 -0.332823,0.319077 -0.119361,0.636264 -0.49582,1.036205 -0.975356,1.036205 -0.396798,0 -1.491669,-0.490539 -1.527525,-0.684378 -0.04266,-0.230648 -0.586396,-0.518765 -0.979014,-0.518765 -0.422027,0 -0.425938,-0.0048 -0.464839,-0.571492 l -0.03922,-0.571492 -0.105031,0.481257 c -0.100952,0.462582 -0.242883,0.655956 -0.484335,0.659886 -0.06228,9.4e-4 -0.02837,-0.06584 0.07537,-0.148551 0.103729,-0.08272 0.221917,-0.330909 0.262639,-0.551539 0.113209,-0.613338 0.483459,-1.04258 1.044222,-1.210588 0.275331,-0.08249 0.585062,-0.182394 0.688288,-0.222007 0.123686,-0.04746 0.158018,-0.02402 0.100691,0.06874 -0.04785,0.07742 -0.02966,0.14076 0.04042,0.14076 0.08645,0 0.127415,-1.018715 0.127415,-3.168686 0,-1.742776 0.03589,-4.967435 0.07976,-7.165905 l 0.07976,-3.997224 -0.350465,0.08086 c -0.192757,0.04448 -0.702385,0.289164 -1.132511,0.54376 -1.13577,0.672276 -1.713027,0.847205 -3.128166,0.947941 -0.694815,0.04946 -1.136277,0.0981 -0.981031,0.108095 0.346675,0.02231 1.61693,0.384885 1.557311,0.444506 -0.07426,0.07426 -2.171762,-0.435025 -2.788057,-0.676956 -0.323145,-0.126852 -0.712476,-0.230639 -0.865178,-0.230639 -0.29276,0 -0.497621,-0.199731 -0.347576,-0.338869 0.04877,-0.04523 0.112848,-0.01456 0.142389,0.06816 0.02954,0.08272 0.187243,0.150393 0.350446,0.150393 0.163202,0 0.461355,0.08513 0.662559,0.189176 0.361275,0.186823 0.781909,0.152835 0.654755,-0.0529 -0.03605,-0.05833 0.417928,-0.218811 1.008845,-0.356621 1.857241,-0.433141 2.820235,-1.084493 3.825516,-2.587506 0.771207,-1.153053 1.109893,-2.236685 1.134218,-3.628953 0.02033,-1.163112 -0.06833,-1.583612 -0.875092,-4.15084 -0.259917,-0.827172 -0.472285,-1.565591 -0.471912,-1.640942 3.62e-4,-0.07535 0.178511,-0.170363 0.395854,-0.211137 0.472881,-0.08871 0.959735,-0.405998 0.863044,-0.562449 -0.130072,-0.210461 -0.621013,-0.112536 -0.946056,0.188703 -0.373874,0.346495 -0.580669,0.376655 -0.796819,0.116213 -0.124043,-0.149466 -0.12397,-0.239152 3.62e-4,-0.471525 0.133058,-0.24862 0.11941,-0.334932 -0.102177,-0.646121 -0.351715,-0.493944 -0.331674,-0.743122 0.05978,-0.743122 0.280177,0 0.297019,-0.0224 0.150394,-0.200037 -0.129356,-0.156707 -0.132387,-0.211056 -0.01398,-0.250905 0.196819,-0.06624 0.06911,-0.270943 -0.169034,-0.270943 -0.226189,0 -0.634376,0.470326 -0.639833,0.737232 -0.002,0.107699 -0.08462,0.262722 -0.183148,0.344496 -0.09853,0.08177 -0.144306,0.205051 -0.101727,0.27395 0.04275,0.06918 0.01981,0.08967 -0.0512,0.04578 -0.07075,-0.04372 -0.14679,-0.02637 -0.168982,0.03856 -0.02219,0.06493 -0.291441,-0.04546 -0.598327,-0.245322 -0.306912,-0.199853 -0.997214,-0.548613 -1.534033,-0.775014 l -0.976036,-0.41164 0,0.773791 c 0,0.657738 0.0371,0.793652 0.247424,0.906208 0.193697,0.103663 0.239415,0.228679 0.210552,0.575726 -0.03501,0.42083 -0.05823,0.442987 -0.457976,0.436954 -0.231602,-0.0035 -0.455649,0.04405 -0.497882,0.105649 -0.04223,0.06161 -0.13698,0.0748 -0.210547,0.02933 -0.184664,-0.114127 -0.169392,-0.341294 0.01664,-0.247339 0.08271,0.04178 0.0016,-0.05181 -0.180471,-0.207969 -0.394005,-0.338113 -0.414051,-0.593149 -0.08807,-1.120591 0.133536,-0.216065 0.255353,-0.599938 0.270705,-0.85305 l 0.02793,-0.460204 -0.481256,0.03593 c -0.62297,0.04652 -1.950002,0.505104 -2.651877,0.91643 -0.359926,0.210931 -0.7027,0.559451 -0.986385,1.002926 -0.562737,0.879698 -1.205966,2.446983 -1.318042,3.211523 -0.08766,0.597998 -0.08862,0.59907 -0.160429,0.180472 -0.0621,-0.361949 -0.08489,-0.3028 -0.162294,0.421099 -0.04952,0.46321 -0.14611,1.24826 -0.214626,1.744556 -0.165164,1.196393 -0.23823,2.141868 -0.151082,1.955105 0.0822,-0.176156 0.531378,-0.204773 0.531378,-0.03386 0,0.06409 -0.08283,0.08475 -0.184059,0.04591 -0.12408,-0.04761 -0.101426,0.02223 0.06953,0.214327 0.261473,0.293823 0.716105,1.440234 0.716105,1.805748 0,0.269032 -0.340547,0.606767 -0.521034,0.51673 -0.07738,-0.03861 0.0082,0.04662 0.190172,0.1894 0.567403,0.44517 0.394813,1.054036 -0.38751,1.36706 -0.424712,0.169936 -0.484769,0.241652 -0.484769,0.578877 0,0.345206 0.01612,0.362858 0.156326,0.171125 0.104002,-0.142232 0.27515,-0.200266 0.511337,-0.173389 0.292351,0.03327 0.362141,0.103075 0.395416,0.395498 0.02222,0.195304 0.144045,0.486848 0.270709,0.647875 0.267995,0.340704 0.301327,0.807964 0.06749,0.946154 -0.08954,0.05292 -0.193721,0.334118 -0.231505,0.624889 -0.0931,0.716519 -0.553583,0.972679 -0.980706,0.545559 -0.153907,-0.153908 -0.189064,-0.157451 -0.189064,-0.01905 0,0.09351 0.210142,0.232982 0.466986,0.309933 0.945887,0.283395 0.99488,0.872739 0.11134,1.339398 -0.577988,0.305277 -0.702289,0.512796 -0.686145,1.145534 l 0.0092,0.360942 0.114776,-0.398248 c 0.102808,-0.356717 0.155,-0.394358 0.500486,-0.360942 0.356923,0.03452 0.385706,0.07013 0.385706,0.47714 0,0.241909 0.04298,0.413207 0.09551,0.380664 0.05253,-0.03255 0.174347,0.0063 0.270709,0.08623 0.233049,0.193415 0.229267,0.911647 -0.0053,1.001649 -0.09991,0.03833 -0.181207,0.218646 -0.182114,0.403894 -0.0028,0.540683 -0.125599,0.849799 -0.362643,0.911788 -0.336588,0.08802 -0.697792,-0.233316 -0.751941,-0.66895 -0.04386,-0.352854 -0.05022,-0.343643 -0.06766,0.098 -0.01881,0.476317 -0.0055,0.493265 0.582312,0.741613 0.532524,0.224984 0.601575,0.295761 0.601575,0.616619 0,0.31325 -0.08985,0.413869 -0.661731,0.741067 -0.625462,0.357855 -0.661728,0.404491 -0.661728,0.851028 0,0.567032 0.08758,0.602242 0.260951,0.104911 0.110846,-0.317982 0.178924,-0.362576 0.505076,-0.330864 0.352399,0.03426 0.375864,0.06605 0.360174,0.487831 -0.01101,0.295557 0.03645,0.451178 0.137523,0.451178 0.08486,0 0.187167,0.08564 0.227334,0.190312 0.116002,0.302302 0.08474,0.892516 -0.04728,0.892516 -0.06618,0 -0.120314,0.100203 -0.120314,0.222675 0,0.426299 -0.262349,0.971145 -0.504645,1.048046 -0.235384,0.07471 -0.233981,0.08225 0.04015,0.215954 0.156222,0.0762 0.392321,0.354887 0.524667,0.61931 0.132342,0.264423 0.400069,0.715944 0.59494,1.003378 0.285677,0.421373 0.378905,0.489552 0.481256,0.351964 0.169259,-0.227527 0.846543,-0.453473 1.359305,-0.453473 0.312557,0 0.429801,0.05886 0.477033,0.239475 0.04607,0.176193 0.131905,0.222085 0.324806,0.17367 0.16485,-0.04138 0.383081,0.02929 0.587842,0.190358 0.179109,0.140888 0.325653,0.19809 0.325653,0.127115 0,-0.177684 0.728644,-0.161569 2.192094,0.04848 0.680273,0.09764 1.453429,0.196822 1.718118,0.220404 l 0.481257,0.04288 -0.541414,0.01807 c -0.297775,0.0099 -1.053542,-0.05987 -1.679474,-0.155141 -0.625936,-0.09526 -1.158846,-0.152428 -1.184245,-0.127028 -0.0254,0.0254 0.120314,0.132279 0.323809,0.237511 0.203495,0.10523 0.486184,0.348491 0.628203,0.54058 0.171159,0.231504 0.323989,0.32438 0.45331,0.275483 0.130445,-0.04932 0.08343,0.0735 -0.141887,0.370648 l -0.336986,0.444415 0.998713,0.002 c 0.977202,0.002 2.394161,0.28389 2.96627,0.590075 0.380405,0.203585 0.435623,0.103219 0.10739,-0.195193 -0.148626,-0.135119 -0.865789,-0.418762 -1.593689,-0.630313 -1.414457,-0.411086 -2.084712,-0.657688 -1.44377,-0.531198 0.19852,0.03918 0.895862,0.227234 1.549652,0.417902 0.65379,0.190668 1.212987,0.346669 1.242658,0.346669 0.1104,0 1.001048,0.961253 0.969855,1.046744 -0.01785,0.04888 0.346567,0.104214 0.809774,0.122958 0.463209,0.01874 1.046325,0.115147 1.295814,0.21423 0.249486,0.09908 0.563995,0.180153 0.698905,0.180153 0.134911,0 0.211834,0.05414 0.170935,0.120314 -0.04089,0.06618 0.0069,0.120314 0.106116,0.120314 0.09926,0 0.213216,-0.05298 0.253235,-0.117737 z m -3.186732,-0.731565 c 0,-0.07008 0.05414,-0.09395 0.120314,-0.05305 0.06618,0.04089 0.120315,0.09823 0.120315,0.127414 0,0.02918 -0.05414,0.05306 -0.120315,0.05306 -0.06617,0 -0.120314,-0.05734 -0.120314,-0.127415 z m 0.751965,-0.152447 c -0.215064,-0.07196 -0.391022,-0.173787 -0.391022,-0.226276 0,-0.05249 -0.124526,-0.09543 -0.276721,-0.09543 -0.383343,0 -0.565478,-0.219525 -0.565478,-0.681559 0,-0.45897 0.172711,-0.580903 0.998123,-0.70467 0.555427,-0.08328 0.569364,-0.09499 0.372376,-0.312661 -0.269406,-0.297691 -0.105031,-0.289217 0.281069,0.01449 0.16825,0.132346 0.370382,0.240629 0.449183,0.240629 0.0788,0 0.27287,0.137949 0.431266,0.306554 0.322101,0.34286 0.443955,1.156819 0.20237,1.351798 -0.235215,0.18984 -1.074906,0.249762 -1.501166,0.107127 z m 1.142984,-0.156914 c 0.156202,-0.04186 0.270705,-0.166063 0.270705,-0.29363 0,-0.253383 -1.013037,-1.074308 -1.325717,-1.074308 -0.48495,0 -0.976743,0.166948 -1.084406,0.368121 -0.148105,0.276735 -0.02765,0.59348 0.227265,0.597548 0.10872,0.0017 0.41424,0.105636 0.678932,0.23089 0.518201,0.245216 0.807621,0.285437 1.233221,0.171379 z m 0.100651,-1.11644 c -0.278694,-0.29089 -0.792459,-0.57039 -0.792459,-0.431113 0,0.05324 0.996033,0.781186 1.068882,0.781186 0.03243,0 -0.09196,-0.157532 -0.276423,-0.350073 z m 2.908543,0.160914 c -0.04345,-0.04345 -0.257784,-0.08779 -0.476305,-0.09854 -0.311467,-0.01532 -0.405619,-0.07734 -0.435759,-0.287023 -0.03424,-0.2383 0.01411,-0.26748 0.443346,-0.26748 0.670384,0 1.126098,0.191151 1.076474,0.451529 -0.04015,0.210716 -0.459511,0.349758 -0.607755,0.201511 z m 0.35911,-0.24246 c -0.129163,-0.129163 -0.976771,-0.276831 -1.105774,-0.192645 -0.06982,0.04557 0.08961,0.115773 0.354304,0.156013 0.716101,0.108865 0.829214,0.114379 0.75147,0.03663 z m 0.994928,-0.62113 c 0.0012,-0.153942 0.02805,-0.169242 0.09934,-0.05691 0.07514,0.118403 0.227933,0.08074 0.666148,-0.164179 0.312758,-0.174804 0.595719,-0.290753 0.628806,-0.257666 0.07788,0.07788 -1.013876,0.689303 -1.230822,0.689303 -0.09092,0 -0.164489,-0.09475 -0.163476,-0.210551 z m -7.882421,-0.391017 c -0.08795,-0.142305 0.02978,-0.142305 0.360943,0 0.231991,0.09969 0.231168,0.103705 -0.02299,0.111858 -0.144982,0.0046 -0.297068,-0.04568 -0.337963,-0.111858 z m -0.947088,-0.41155 c -0.190032,-0.15542 -0.325385,-0.329432 -0.300785,-0.386695 0.02459,-0.05726 0.232382,0.07185 0.461729,0.286911 0.478117,0.44833 0.357024,0.523406 -0.160944,0.09978 z m 1.007246,0.170922 -0.300786,-0.09633 0.323765,-0.01199 c 0.178068,-0.0066 0.357221,0.04215 0.39812,0.108323 0.08453,0.136766 0.0059,0.136766 -0.421099,0 z m 7.286741,-0.205361 c -0.06529,-0.171471 -0.05147,-0.185291 0.06735,-0.06735 0.08222,0.08161 0.119193,0.178695 0.08215,0.215739 -0.03705,0.03704 -0.104315,-0.02973 -0.149499,-0.148388 z m -8.068787,-0.39621 c -0.324211,-0.0825 -0.330331,-0.09207 -0.06016,-0.09409 0.165433,-0.0012 0.436141,0.0411 0.601574,0.09409 0.235693,0.07548 0.24871,0.09584 0.06016,0.09409 -0.132347,-0.0012 -0.403056,-0.04357 -0.601575,-0.09409 z m -6.778182,-0.808172 c -0.154667,-0.02943 -0.543737,-0.306554 -0.864595,-0.615822 -0.556729,-0.536616 -0.581622,-0.588433 -0.544826,-1.134219 0.02122,-0.314551 0.105594,-0.652684 0.187525,-0.751405 0.174535,-0.210303 0.480444,-0.239049 0.480444,-0.04515 0,0.07513 0.106107,0.106599 0.240732,0.07139 0.43056,-0.112593 1.057103,1.009738 0.931239,1.668139 -0.03476,0.18183 3.62e-4,0.291777 0.09328,0.291777 0.08198,0 0.219879,0.08534 0.306444,0.189642 0.130437,0.157165 0.127809,0.208357 -0.01535,0.298942 -0.178635,0.113036 -0.334406,0.11814 -0.814895,0.0267 z m -0.38051,-0.554469 c 0,-0.02155 -0.148887,-0.170439 -0.330866,-0.330864 l -0.330862,-0.291678 0.29168,0.330863 c 0.272617,0.309242 0.370048,0.386039 0.370048,0.291679 z m 0.59893,-0.47215 c -0.0056,-0.322665 -0.482578,-1.191826 -0.627796,-1.144149 -0.26569,0.08723 -0.251411,0.773633 0.02178,1.046819 0.275511,0.275511 0.610097,0.329247 0.606022,0.09733 z m -1.235906,-0.962513 c -0.02869,-0.148889 -0.05214,-0.02707 -0.05214,0.270707 0,0.297777 0.02347,0.419595 0.05214,0.270706 0.0287,-0.148888 0.0287,-0.392525 0,-0.541413 z m 16.405664,0.812121 c -0.0032,-0.132347 0.06913,-0.384714 0.161008,-0.560817 l 0.167056,-0.320186 -0.356702,0.124347 c -0.196189,0.06839 -0.576031,0.09493 -0.844095,0.05897 -0.360018,-0.04829 -0.452141,-0.03012 -0.352507,0.06951 0.07419,0.07418 0.134882,0.205265 0.134882,0.29129 0,0.100261 -0.08638,0.07003 -0.240628,-0.08422 -0.132347,-0.132347 -0.237217,-0.274543 -0.233049,-0.315992 0.0042,-0.04145 -0.11765,-0.137486 -0.270708,-0.213418 -0.222174,-0.11022 -0.28568,-0.252709 -0.314956,-0.70668 l -0.03669,-0.568624 0.734451,0 c 0.416731,0 0.885059,0.07788 1.082594,0.180029 0.361163,0.186766 0.577213,0.07495 0.405956,-0.210108 -0.05129,-0.08537 0.0043,-0.07237 0.128597,0.03008 0.120427,0.09926 0.4692,0.261684 0.775062,0.360943 0.768811,0.249499 0.754713,0.554374 -0.04547,0.983063 -0.437824,0.234561 -0.640656,0.431186 -0.745169,0.722361 -0.09518,0.265174 -0.145644,0.318937 -0.149655,0.159446 z m 0.335608,-1.11945 c 0.287985,-0.112203 0.521283,-0.258148 0.518438,-0.324321 -0.0028,-0.06617 -0.265545,-0.165621 -0.583771,-0.220996 -0.318223,-0.05538 -0.661965,-0.143476 -0.763861,-0.195782 -0.1019,-0.05231 -0.461516,-0.133096 -0.799145,-0.179531 -0.685306,-0.09425 -0.828869,0.0053 -0.707116,0.490403 0.151054,0.601858 1.33511,0.819978 2.335455,0.430227 z m 0.980319,-0.204007 c 0.08633,-0.104022 0.09802,-0.180471 0.02761,-0.180471 -0.0672,0 -0.153337,0.08121 -0.191427,0.180471 -0.0381,0.09926 -0.05052,0.180472 -0.02761,0.180472 0.02291,0 0.10905,-0.08121 0.191431,-0.180472 z m -3.569322,1.203142 c 0,-0.09926 0.04512,-0.180471 0.100264,-0.180471 0.05514,0 0.10026,0.08121 0.10026,0.180471 0,0.09926 -0.04512,0.180471 -0.10026,0.180471 -0.05514,0 -0.100264,-0.08121 -0.100264,-0.180471 z M 28.582469,39.97038 c -0.03729,-0.06032 0.0131,-0.140714 0.112003,-0.178658 0.09888,-0.03794 0.17978,-0.01974 0.17978,0.04045 0,0.163093 -0.213811,0.264368 -0.291783,0.138209 z m -5.470071,-1.949383 c -0.290501,-0.05705 -0.623272,-0.189784 -0.739487,-0.294958 -0.141271,-0.127848 -0.226393,-0.145942 -0.25684,-0.0546 -0.0587,0.176119 -2.286943,-0.142593 -3.274353,-0.468342 -0.380593,-0.125559 -0.783014,-0.205043 -0.894261,-0.176631 -0.315815,0.08066 -2.097146,-0.297592 -2.284686,-0.485132 -0.106871,-0.106872 -0.136867,-0.266611 -0.08233,-0.43845 0.08201,-0.258375 0.128512,-0.2674 1.05181,-0.204116 0.676777,0.04639 1.060048,0.134517 1.2801,0.294349 0.259399,0.188411 0.385577,0.207139 0.724601,0.107551 0.38018,-0.111683 0.287607,-0.144802 -1.253283,-0.448368 -1.954041,-0.38496 -2.18813,-0.47614 -2.357168,-0.918135 -0.119852,-0.313382 -0.06873,-1.77565 0.09102,-2.603666 l 0.06681,-0.346297 0.769093,0.06174 0.769093,0.06173 0,-0.337248 c 0,-0.807123 0.318335,-0.892565 1.747162,-0.468948 0.461777,0.136908 0.946108,0.247669 1.076292,0.246136 0.496894,-0.0059 3.31469,0.460125 3.552698,0.587502 0.137309,0.07348 0.369555,0.385715 0.516099,0.693843 0.217548,0.457426 0.340245,0.575293 0.668612,0.642299 0.221195,0.04513 0.453259,0.133155 0.515707,0.1956 0.198467,0.198469 0.257258,0.948051 0.167864,2.140386 -0.06612,0.881914 -0.131478,1.174511 -0.274627,1.229442 -0.103318,0.03964 -0.77973,-0.02229 -1.503138,-0.137628 -0.723403,-0.115342 -1.332714,-0.192133 -1.354018,-0.170646 -0.0213,0.02149 0.06519,0.167262 0.192215,0.323943 0.191176,0.235814 0.2623,0.258855 0.412993,0.133792 0.202687,-0.168218 1.213376,-0.105731 1.771701,0.109537 0.259902,0.100208 0.330866,0.20562 0.330866,0.491488 0,0.342665 -0.02636,0.363151 -0.45118,0.350738 -0.248148,-0.0073 -0.688858,-0.05986 -0.979364,-0.116917 z m 1.189915,-0.28103 c 0,-0.273753 -1.587456,-0.564946 -1.739418,-0.319069 -0.09808,0.1587 0.10284,0.25636 0.752874,0.365945 0.85736,0.144535 0.986544,0.138399 0.986544,-0.04688 z m -2.406285,-0.372859 c 0,-0.100329 -0.175958,-0.26301 -0.391019,-0.361511 -0.542037,-0.248262 -2.534268,-0.514842 -2.880674,-0.385462 -0.250084,0.0934 -0.212738,0.126602 0.377073,0.335193 0.360059,0.127337 1.08601,0.285611 1.613233,0.351719 0.527219,0.0661 0.986095,0.147709 1.019724,0.181337 0.121845,0.121848 0.261663,0.05705 0.261663,-0.121276 z m -4.030522,-0.790121 c 0,-0.193825 -0.840334,-0.446662 -1.534007,-0.461548 -0.307801,-0.0066 -0.451179,0.04301 -0.451179,0.156135 0,0.108993 0.298924,0.227832 0.872279,0.346781 0.984652,0.204275 1.112907,0.199508 1.112907,-0.04137 z m 6.531112,-1.281696 -0.03416,-1.291724 -1.503926,-0.275504 C 19.89733,33.185599 15.897018,32.49633 15.709911,32.49633 c -0.160401,0 -0.189927,0.176071 -0.186636,1.112907 l 0.004,1.112906 0.387113,-0.62788 c 0.268928,-0.436196 0.465767,-0.629031 0.64476,-0.631649 0.221949,-0.0033 0.279397,0.105668 0.414653,0.786129 0.156881,0.789259 0.157178,0.789674 0.369237,0.511335 0.154533,-0.202835 0.19299,-0.401216 0.141457,-0.729742 -0.06209,-0.395865 -0.04096,-0.451178 0.172365,-0.451178 0.133724,0 0.276636,0.08731 0.317588,0.194021 0.05999,0.156342 0.108924,0.165412 0.251968,0.0467 0.210006,-0.174292 0.541523,-0.07759 0.541523,0.157958 0,0.09108 -0.108286,0.263594 -0.240629,0.383366 -0.346314,0.313408 -0.301609,0.373117 0.240629,0.321406 0.430398,-0.04105 0.481256,-0.01774 0.481256,0.220533 0,0.231978 -0.05272,0.260275 -0.407709,0.218831 -0.366404,-0.04278 -0.39861,-0.02301 -0.317925,0.195101 0.05156,0.139374 0.243887,0.274216 0.451762,0.316731 0.310222,0.06345 0.353681,0.04227 0.303896,-0.148106 -0.04296,-0.164307 0.0082,-0.22214 0.196571,-0.22214 0.202747,0 0.254661,-0.07358 0.254661,-0.360942 0,-0.198519 -0.05414,-0.360944 -0.120314,-0.360944 -0.264672,0 -0.113795,-0.478308 0.173635,-0.550447 0.483576,-0.121371 0.585873,0.03096 0.501708,0.747083 -0.0874,0.743671 0.05374,0.828167 0.661032,0.395735 0.380611,-0.271018 0.373304,-0.487603 -0.01302,-0.386572 -0.195216,0.05105 -0.240511,0.0036 -0.240511,-0.251923 0,-0.278332 0.04781,-0.314817 0.412506,-0.314817 0.673921,0 0.99609,0.515232 0.632817,1.012037 -0.0868,0.118708 -0.13518,0.370099 -0.107502,0.558648 0.05374,0.366204 -0.04233,0.329334 1.829406,0.702025 1.04276,0.20763 0.974831,0.291636 0.936503,-1.158149 z m -1.89902,0.629993 c 0,-0.220575 -0.06417,-0.300785 -0.240628,-0.300785 -0.179125,0 -0.240628,-0.08021 -0.240628,-0.313829 0,-0.272269 0.0387,-0.304109 0.292393,-0.240441 0.238796,0.05993 0.299447,0.02373 0.330866,-0.197507 0.05865,-0.412976 0.50895,-0.364561 0.557798,0.05997 0.02689,0.233741 0.106357,0.330865 0.270705,0.330865 0.152428,0 0.232639,0.08296 0.232639,0.240628 0,0.178777 -0.08021,0.240628 -0.31205,0.240628 -0.210865,0 -0.332453,0.07803 -0.374976,0.240628 -0.09479,0.362474 -0.516119,0.313364 -0.516119,-0.06016 z m -2.198238,0.468725 c -0.03999,-0.03998 -0.143751,-0.04425 -0.230601,-0.0095 -0.09598,0.0384 -0.06747,0.06691 0.07269,0.07269 0.126832,0.0052 0.197892,-0.02321 0.157913,-0.06319 z m -0.60157,-0.120314 c -0.03999,-0.03998 -0.143751,-0.04425 -0.230605,-0.0095 -0.09598,0.03841 -0.06747,0.06691 0.07269,0.07269 0.126833,0.0052 0.197893,-0.02321 0.157914,-0.06319 z m -1.728355,-0.949291 c -0.03794,-0.09888 -0.123236,-0.146252 -0.189541,-0.105274 -0.07413,0.04581 -0.05768,0.114339 0.04269,0.177938 0.219067,0.138809 0.226579,0.135094 0.146854,-0.07266 z m -0.918559,-0.01322 c -0.03999,-0.03998 -0.143748,-0.04425 -0.230601,-0.0095 -0.09598,0.03841 -0.06747,0.06691 0.07269,0.07269 0.126829,0.0052 0.197889,-0.02321 0.15791,-0.06319 z m -0.448672,-0.228092 c 0,-0.100262 -0.106943,-0.180472 -0.240628,-0.180472 -0.29638,0 -0.318307,0.202684 -0.03006,0.278006 0.1158,0.03026 0.224082,0.0613 0.240628,0.06898 0.01656,0.0077 0.03006,-0.06725 0.03006,-0.166515 z m 6.957572,-1.594163 c -0.02238,-0.04963 -0.117497,-0.28914 -0.211351,-0.532244 -0.09385,-0.243104 -0.283078,-0.494212 -0.420501,-0.558017 -0.301199,-0.13985 -2.353004,-0.509672 -3.160139,-0.56959 -0.318351,-0.02363 -0.984885,-0.15295 -1.48118,-0.28737 -1.156463,-0.313222 -1.185265,-0.311352 -1.268558,0.08235 -0.192062,0.907832 -0.197089,0.872278 0.12328,0.872278 0.224428,0 0.303076,-0.06342 0.303076,-0.244404 0,-0.287387 0.319058,-0.447178 0.510545,-0.255692 0.09769,0.09769 0.17957,0.09513 0.30572,-0.0096 0.136916,-0.113631 0.206669,-0.09597 0.339743,0.08602 0.244056,0.333767 0.205335,0.542263 -0.103258,0.55604 -0.162138,0.0072 -0.0777,0.05803 0.210552,0.126643 0.264688,0.06301 0.601184,0.09251 0.747765,0.06556 0.146581,-0.02695 0.281933,-0.0076 0.300785,0.04305 0.01884,0.05062 0.292149,0.130221 0.607325,0.176879 0.498047,0.07373 0.563284,0.05939 0.498461,-0.109535 -0.0588,-0.15324 0.0045,-0.194361 0.29923,-0.194361 0.406829,0 0.535606,0.307514 0.163267,0.389867 -0.115805,0.02561 0.22258,0.132408 0.75196,0.237323 1.097319,0.217472 1.541964,0.254875 1.483278,0.124773 z m -5.513799,-1.160195 c 0,-0.02601 -0.08403,-0.07953 -0.18672,-0.118937 -0.107072,-0.04109 -0.155366,-0.02091 -0.113218,0.04728 0.07066,0.114325 0.299938,0.169096 0.299938,0.07165 z m 13.398382,5.401265 c -0.130377,-0.339758 0.05366,-0.541413 0.494129,-0.541413 0.34213,0 0.424876,0.04604 0.424876,0.236395 0,0.409663 -0.779566,0.6684 -0.919005,0.305018 z m -2.570107,-1.628017 c 0,-0.285847 0.318681,-0.447554 0.508307,-0.257926 0.09471,0.09471 0.08836,0.18279 -0.02282,0.31676 -0.217926,0.262587 -0.485488,0.230162 -0.485488,-0.05883 z m 2.322893,-1.482987 c 0.04818,-0.125547 -0.05914,-0.165235 -0.43773,-0.161884 -0.699046,0.0061 -1.425226,-0.154891 -1.674615,-0.371461 -0.140163,-0.121719 -0.210548,-0.357599 -0.210548,-0.705608 l 0,-0.522767 0.827466,0 c 0.58875,0 0.87068,0.05206 0.977246,0.180471 0.181141,0.218262 0.494269,0.240567 0.422244,0.03008 -0.02829,-0.08272 0.02536,-0.827159 0.119285,-1.654319 0.166992,-1.470821 0.16946,-1.478766 0.11196,-0.360943 -0.03235,0.628642 -0.09039,1.319172 -0.129,1.534511 -0.06559,0.365814 -0.03971,0.403536 0.39446,0.574409 0.703261,0.276791 0.822526,0.361691 0.860379,0.612467 0.0256,0.169723 -0.144218,0.33318 -0.645102,0.620871 -0.386739,0.222133 -0.652351,0.318786 -0.616045,0.224174 z m 0.253885,-0.554302 c 0.303265,-0.129995 0.551388,-0.285651 0.551388,-0.345903 0,-0.113019 -0.564175,-0.259944 -0.998155,-0.259944 -0.135409,0 -0.331926,-0.07758 -0.436708,-0.172412 -0.104781,-0.09483 -0.473568,-0.209962 -0.819529,-0.255854 -0.715048,-0.09486 -0.861087,0.0446 -0.664822,0.634846 0.09092,0.273454 0.219827,0.360286 0.703153,0.473676 0.848544,0.199072 1.047406,0.190183 1.664673,-0.07441 z m 5.887899,-1.387889 c 0.0096,-0.46321 -0.02894,-0.970797 -0.08565,-1.127973 -0.07034,-0.194916 -0.06226,-0.260515 0.0254,-0.20633 0.21236,0.131246 0.287929,0.848093 0.161579,1.532703 l -0.11882,0.643799 0.01749,-0.842199 z M 24.121842,32.247543 c -0.19852,-0.12716 -0.279731,-0.230281 -0.180471,-0.229159 0.09926,0.0011 0.315823,0.107917 0.481257,0.23732 0.384676,0.300897 0.172726,0.295146 -0.300786,-0.0082 z m 0.180471,-0.2384 c -0.297779,-0.121885 -0.454745,-0.224554 -0.348818,-0.228153 0.292889,-0.0099 0.950388,0.243374 0.950388,0.366171 0,0.05969 -0.01354,0.102929 -0.03006,0.09607 -0.01656,-0.0069 -0.273715,-0.112199 -0.57149,-0.234086 z m 7.395297,0.154484 c -0.256406,-0.182279 -0.116327,-0.449333 0.254678,-0.485542 0.289979,-0.0283 0.371375,0.0111 0.372826,0.18047 0.002,0.220767 -0.166152,0.393464 -0.382853,0.393464 -0.06617,0 -0.176268,-0.03977 -0.244651,-0.08839 z m -1.229194,-0.838346 c -0.105747,-0.03666 -0.145327,-0.343839 -0.133319,-1.034708 0.01387,-0.797123 0.03331,-0.891737 0.103238,-0.501309 l 0.08617,0.481256 0.02906,-0.481256 c 0.0258,-0.427401 0.03982,-0.447597 0.125394,-0.180472 0.124216,0.387857 0.142795,1.464747 0.02825,1.63628 -0.04861,0.07279 -0.15607,0.108888 -0.238784,0.08021 z m 6.720392,-0.272721 c -0.0012,-0.09926 0.07438,-0.505319 0.16819,-0.902356 l 0.170568,-0.721885 -0.07073,0.661728 c -0.06864,0.642095 -0.263056,1.340282 -0.268028,0.962513 z m -5.78796,-2.040726 c 0,-0.09798 -0.09433,-0.128325 -0.262321,-0.08439 -0.403329,0.105473 -1.929623,-0.357704 -2.18011,-0.661588 -0.131241,-0.159219 -0.202373,-0.408701 -0.180471,-0.632993 l 0.03613,-0.370194 0.874027,0.0078 c 0.503179,0.0045 0.934538,0.06828 1.016654,0.150392 0.180856,0.180858 0.575758,0.186059 0.575758,0.0076 0,-0.0888 0.0515,-0.0959 0.150394,-0.02072 0.08271,0.06288 0.407564,0.209341 0.721884,0.325468 0.727322,0.268712 0.770742,0.586363 0.120315,0.880236 -0.248148,0.112118 -0.545926,0.282058 -0.661728,0.377643 -0.159445,0.131611 -0.210551,0.13666 -0.210551,0.02081 z m 0.08791,-0.50801 c 0.348685,-0.144523 0.633978,-0.304402 0.633978,-0.355288 0,-0.08897 -0.762439,-0.342405 -1.034268,-0.343787 -0.07255,-3.61e-4 -0.289115,-0.0758 -0.481257,-0.167623 -0.192142,-0.09182 -0.633588,-0.20197 -0.980999,-0.244771 l -0.631647,-0.07782 0,0.346439 c 0,0.190542 0.09475,0.431851 0.210548,0.536244 0.162302,0.146311 1.039408,0.454015 1.591841,0.558443 0.03179,0.006 0.343118,-0.107313 0.691804,-0.251835 z m -9.111476,0.152177 c 0.09926,-0.0695 0.320502,-0.127183 0.491641,-0.128196 0.171144,-9.4e-4 0.685487,-0.24432 1.142985,-0.540681 0.457501,-0.296362 0.913029,-0.537831 1.012289,-0.536596 0.09926,0.0012 0.02126,0.08842 -0.17333,0.193755 -0.194589,0.105332 -0.566435,0.345547 -0.82632,0.533809 -0.259891,0.188263 -0.669167,0.375349 -0.909502,0.415746 -0.240334,0.0404 -0.545259,0.09934 -0.677605,0.130984 -0.196498,0.04698 -0.20753,0.03436 -0.06016,-0.06882 z m -5.358155,-1.086719 c -0.134641,-0.05457 -0.313452,-0.181945 -0.397357,-0.283041 -0.263949,-0.31804 0.278779,-0.388143 0.7363,-0.09511 0.435656,0.279033 0.31033,0.337133 -0.154297,0.07153 -0.354516,-0.202661 -0.481256,-0.221143 -0.481256,-0.07018 0,0.06066 0.230103,0.191737 0.511337,0.291286 0.281234,0.09955 0.403051,0.181842 0.270704,0.182871 -0.132341,0.0011 -0.350786,-0.04278 -0.485431,-0.09736 z m 8.305855,-0.0059 c -0.04089,-0.06618 -0.01704,-0.120314 0.05305,-0.120314 0.07008,0 0.127415,0.05414 0.127415,0.120314 0,0.06617 -0.02387,0.120314 -0.05305,0.120314 -0.02917,0 -0.08652,-0.05414 -0.127415,-0.120314 z m -8.378477,-0.836563 c -0.921843,-0.605181 -2.045589,-1.708766 -2.67822,-2.630174 -0.191804,-0.279358 -0.321956,-0.534706 -0.289219,-0.567441 0.03271,-0.03273 0.278742,0.252488 0.546685,0.633828 0.647674,0.921782 1.841813,2.044835 2.768261,2.603471 0.41358,0.249384 0.751965,0.476576 0.751965,0.50487 0,0.134814 -0.263169,0.0045 -1.099472,-0.544554 z m 14.350088,0.114744 c -0.02062,-0.616524 0.208988,-2.51991 0.362843,-3.007855 0.17605,-0.558337 0.454716,-0.860433 0.757643,-0.821346 0.135887,0.01753 0.321772,-0.01459 0.41307,-0.07139 0.116002,-0.07217 0.14892,-0.05293 0.109291,0.06387 -0.03119,0.09193 -0.191989,0.167141 -0.35733,0.167141 -0.656768,0 -0.883937,0.549046 -1.120048,2.707069 -0.08326,0.760987 -0.157721,1.194118 -0.165469,0.962513 z m -0.717637,-0.260005 c 0.02191,-0.154776 0.121061,-0.281409 0.220322,-0.281409 0.26093,0 0.224987,0.469389 -0.03987,0.520391 -0.17085,0.03291 -0.211371,-0.02075 -0.180471,-0.238982 z M 18.462101,26.472573 c -0.04384,-0.07093 -0.0067,-0.111668 0.08314,-0.09105 0.08936,0.02052 0.164067,-0.01647 0.166024,-0.08219 0.002,-0.06572 -0.07926,-0.100814 -0.180471,-0.07798 -0.101217,0.02284 -0.144266,0.0011 -0.09566,-0.04826 0.0486,-0.04938 -0.0016,-0.155548 -0.111513,-0.235934 -0.173056,-0.126542 -0.179245,-0.195974 -0.04612,-0.517366 0.293777,-0.709237 1.227028,-1.003282 1.31086,-0.413019 0.02472,0.173969 0.121443,0.270706 0.270705,0.270706 0.127745,0 0.232261,0.05244 0.232261,0.116539 0,0.06409 -0.08121,0.08537 -0.180471,0.04728 -0.11716,-0.04496 -0.180472,0.0031 -0.180472,0.136962 0,0.133872 0.06331,0.181921 0.180472,0.136962 0.09926,-0.03809 0.180471,-0.01681 0.180471,0.04728 0,0.06409 -0.04908,0.116539 -0.10905,0.116539 -0.05998,0 -0.08328,0.09853 -0.0518,0.218955 0.08862,0.338869 -0.262478,0.567952 -0.620466,0.404842 -0.183975,-0.08383 -0.319537,-0.0904 -0.364478,-0.01769 -0.09567,0.154801 -0.384626,0.147281 -0.483427,-0.01258 z m 1.207988,-0.232371 c 0.04082,-0.06605 -0.01013,-0.240527 -0.113218,-0.387713 -0.103093,-0.147186 -0.187439,-0.414792 -0.187439,-0.594681 0,-0.179889 -0.05474,-0.360903 -0.121645,-0.402252 -0.123995,-0.07663 -0.843758,0.562495 -0.837343,0.743532 0.0032,0.09617 0.933617,0.729804 1.102281,0.750845 0.04572,0.0057 0.116536,-0.04367 0.157364,-0.109731 z m 12.069144,0.15823 c 0.08685,-0.03475 0.190622,-0.03049 0.230601,0.0095 0.03999,0.03997 -0.03106,0.06841 -0.15791,0.06319 -0.140162,-0.0058 -0.168668,-0.03428 -0.07269,-0.07269 z m 0.481256,0 c 0.08685,-0.03475 0.190623,-0.03049 0.230602,0.0095 0.03999,0.03997 -0.03106,0.06841 -0.15791,0.06319 -0.140159,-0.0058 -0.168668,-0.03428 -0.07269,-0.07269 z m -0.518856,-0.278754 c 0.0409,-0.06618 0.1285,-0.120315 0.194674,-0.120315 0.06618,0 0.08685,0.05414 0.04595,0.120315 -0.04089,0.06617 -0.128495,0.120313 -0.194668,0.120313 -0.06618,0 -0.08685,-0.05414 -0.04596,-0.120313 z m 0.48126,0 c -0.0409,-0.06618 -0.02021,-0.120315 0.04596,-0.120315 0.06618,0 0.153775,0.05414 0.194674,0.120315 0.04089,0.06617 0.02021,0.120313 -0.04596,0.120313 -0.06617,0 -0.153774,-0.05414 -0.194669,-0.120313 z m -10.108412,-1.22518 c -0.03581,-0.09331 0.07182,-0.427164 0.239166,-0.741902 0.167345,-0.314737 0.304269,-0.669276 0.304269,-0.787864 0,-0.118588 0.09901,-0.305218 0.22002,-0.414733 0.238354,-0.215703 0.742493,-0.271775 0.742493,-0.08258 0,0.06409 -0.08323,0.0846 -0.184952,0.04557 -0.230629,-0.0885 -0.657247,0.282829 -0.657247,0.572063 0,0.118589 -0.129425,0.459024 -0.287607,0.756525 -0.31058,0.584125 -0.292354,0.736255 0.06529,0.544853 0.125011,-0.06691 0.277178,-0.09081 0.338151,-0.05313 0.122653,0.0758 0.443223,-0.549904 0.522529,-1.019899 0.04339,-0.25713 0.05313,-0.24603 0.06714,0.07648 0.0207,0.476708 -0.275434,1.05956 -0.553304,1.089006 -0.116794,0.01238 -0.333515,0.05912 -0.481598,0.103886 -0.179954,0.05439 -0.290835,0.02512 -0.334347,-0.08827 z m 8.724797,-0.990607 c 0,-0.104773 0.08572,-0.190497 0.190497,-0.190497 0.212465,0 0.175464,0.259007 -0.04762,0.33337 -0.07858,0.02619 -0.142876,-0.0381 -0.142876,-0.142873 z M 19.149605,23.634084 c 0.0507,-0.263297 0.400298,-0.300546 0.400298,-0.04265 0,0.09835 -0.09966,0.198018 -0.221475,0.221477 -0.160791,0.03096 -0.209788,-0.01803 -0.178823,-0.178825 z m 4.487247,0.07327 c -0.110504,-0.178798 -0.02263,-0.242095 0.170457,-0.122769 0.103435,0.06393 0.115741,0.125933 0.03493,0.175892 -0.06866,0.04244 -0.161081,0.01853 -0.205364,-0.05312 z m -5.109619,-0.174428 c 0,-0.09926 0.08121,-0.180472 0.180472,-0.180472 0.09926,0 0.180471,0.08121 0.180471,0.180472 0,0.09926 -0.08121,0.180471 -0.180471,0.180471 -0.09926,0 -0.180472,-0.08121 -0.180472,-0.180471 z m 2.88872,-0.118891 c -0.120097,-0.14471 -0.11249,-0.192903 0.03966,-0.25129 0.253874,-0.09742 0.445385,0.03676 0.362128,0.25372 -0.08629,0.224864 -0.213796,0.224093 -0.401794,-0.0024 z m 2.534914,-0.332288 c -0.0052,-0.115802 0.07172,-0.21055 0.170975,-0.21055 0.09926,0 0.180471,-0.07458 0.180471,-0.16574 0,-0.09116 -0.08121,-0.233138 -0.180471,-0.315516 -0.09926,-0.08238 -0.17867,-0.210825 -0.176468,-0.285439 0.002,-0.07461 0.110484,-0.0078 0.240628,0.148374 0.27562,0.330844 0.312158,0.738636 0.06618,0.738636 -0.09375,0 -0.197752,0.06767 -0.231132,0.150393 -0.03625,0.08984 -0.06451,0.06563 -0.07018,-0.06016 z m -5.903351,-0.601571 c -0.428755,-0.29385 -1.324998,-1.677661 -1.324998,-2.045815 0,-0.125158 0.191434,0.139706 0.425408,0.588586 0.504388,0.967678 0.698407,1.198013 1.258865,1.494484 0.231674,0.122549 0.334487,0.225211 0.228471,0.228135 -0.106019,0.003 -0.370503,-0.116501 -0.587746,-0.26539 z m 1.141445,0.0953 c 0.614949,-0.26541 0.991829,-0.318123 0.481256,-0.06731 -0.264693,0.130026 -0.562468,0.233415 -0.661727,0.229752 -0.09926,-0.0037 -0.01804,-0.07676 0.180471,-0.162442 z m 4.530779,-0.18553 c 0,-0.165432 0.02729,-0.233109 0.06069,-0.150393 0.03339,0.08272 0.03339,0.21807 0,0.300786 -0.0334,0.08272 -0.06069,0.01504 -0.06069,-0.150393 z m -2.740704,-0.185924 c -0.165184,-0.252106 -0.177634,-0.385029 -0.07043,-0.751964 0.08458,-0.289517 0.09252,-0.635467 0.02266,-0.987139 -0.199291,-1.003047 -0.144418,-1.57326 0.199099,-2.068953 0.17443,-0.251704 0.390994,-0.457644 0.481256,-0.457644 0.181849,0 0.218516,0.449741 0.05739,0.703996 -0.06027,0.09511 -0.0393,0.37426 0.05049,0.672659 0.14748,0.490045 0.126029,0.919464 -0.140095,2.804262 -0.06693,0.474026 -0.321735,0.510009 -0.600356,0.08478 z m 0.553956,-1.177487 c 0.08977,-0.86567 0.08338,-1.305669 -0.02483,-1.710242 -0.114262,-0.427204 -0.114093,-0.595306 7.96e-4,-0.779239 0.239535,-0.383555 0.16729,-0.415712 -0.154321,-0.06869 -0.247766,0.267342 -0.300785,0.44555 -0.300785,1.010955 0,0.377522 0.05327,0.872156 0.118385,1.099188 0.08148,0.28409 0.07589,0.554602 -0.01788,0.867665 -0.106575,0.355706 -0.102415,0.495694 0.01909,0.642077 0.08545,0.102959 0.174122,0.168435 0.197053,0.145504 0.02295,-0.02293 0.09608,-0.566179 0.162551,-1.207219 z m -3.379288,0.649761 c -0.49709,-0.326335 -0.963392,-0.724129 -1.036229,-0.883986 -0.08387,-0.184084 -0.100489,-0.561517 -0.04532,-1.029399 0.130744,-1.108832 0.732615,-1.781103 1.794234,-2.004101 0.341327,-0.0717 0.408879,-0.04728 0.46521,0.168131 0.03625,0.138605 0.162262,0.252008 0.280032,0.252008 0.117775,0 0.377066,0.185572 0.576208,0.41238 0.199143,0.226809 0.394242,0.380209 0.433565,0.34089 0.11669,-0.116692 0.08151,0.264894 -0.06251,0.678033 -0.110142,0.315946 -0.09943,0.422579 0.06016,0.59892 0.312497,0.345306 0.233315,0.728836 -0.23998,1.162356 -0.262129,0.240102 -0.399025,0.454451 -0.345527,0.541015 0.118345,0.191489 -0.158733,0.35298 -0.609523,0.355247 -0.238912,0.0012 -0.681175,-0.204731 -1.270315,-0.591494 z m 1.547992,0.149727 c -0.115029,-0.03011 -0.331593,-0.03121 -0.481256,-0.0024 -0.14966,0.02878 -0.05554,0.05342 0.209149,0.05475 0.264692,0.0013 0.38714,-0.02221 0.272107,-0.05232 z m -1.378219,-0.548991 c -0.44069,-0.464133 -0.542594,-0.756075 -0.536546,-1.537131 0.0051,-0.654011 0.243931,-1.207472 0.649377,-1.504638 l 0.271397,-0.198914 -0.300786,0.08553 c -0.427023,0.121422 -0.67892,0.373595 -0.966407,0.967459 -0.375924,0.776557 -0.2398,1.289865 0.532098,2.006486 0.707787,0.6571 0.894073,0.753309 0.350867,0.181211 z m 1.581252,-0.01073 c 0.199074,-0.145567 0.201296,-0.168433 0.02299,-0.236853 -0.108544,-0.04165 -0.197351,-0.185709 -0.197351,-0.320132 0,-0.308318 0.418142,-0.332234 0.591934,-0.03386 0.06745,0.115802 0.124281,0.149503 0.126294,0.07489 0.002,-0.07461 -0.08051,-0.205513 -0.183381,-0.290889 -0.367054,-0.304625 -0.444589,-0.592487 -0.242614,-0.90074 0.103963,-0.158666 0.189024,-0.37206 0.189024,-0.474208 0,-0.153224 -0.04055,-0.160402 -0.231715,-0.04102 -0.31477,0.196578 -0.851112,-0.04334 -0.851112,-0.380718 0,-0.277551 -0.04494,-0.29201 -0.368851,-0.11866 -0.158822,0.085 -0.232719,0.252239 -0.232719,0.526682 0,0.221174 -0.08122,0.469534 -0.180472,0.551912 -0.355923,0.29539 -0.09494,1.221173 0.314096,1.114208 0.284834,-0.07449 0.58826,0.16516 0.58826,0.464608 0,0.26727 0.333611,0.300231 0.655611,0.06477 z m -1.174467,-1.360348 c -0.165292,-0.165293 -0.07956,-0.42059 0.127833,-0.38065 0.115805,0.0223 0.210551,0.116507 0.210551,0.209346 0,0.189958 -0.212271,0.297418 -0.338384,0.171304 z m 1.720156,-0.320419 c 7.96e-4,-0.05353 -0.0523,-0.06388 -0.118474,-0.02298 -0.06618,0.04089 -0.119486,0.165911 -0.118469,0.277807 0.0016,0.17533 0.01796,0.178507 0.118469,0.02298 0.06414,-0.09926 0.117461,-0.224273 0.118474,-0.277808 z m -0.659887,-0.80502 c -0.0409,-0.06617 -0.155571,-0.120314 -0.25483,-0.120314 -0.09926,0 -0.147011,0.05414 -0.106112,0.120314 0.04089,0.06617 0.155571,0.120314 0.25483,0.120314 0.09926,0 0.147007,-0.05414 0.106112,-0.120314 z m -0.661727,-0.842199 c 0,-0.06617 -0.05414,-0.120314 -0.120314,-0.120314 -0.06617,0 -0.120314,0.05414 -0.120314,0.120314 0,0.06617 0.05414,0.120314 0.120314,0.120314 0.06617,0 0.120314,-0.05414 0.120314,-0.120314 z m 9.587534,4.133293 c -0.185342,-0.185342 -0.07789,-0.523868 0.166281,-0.523868 0.187151,0 0.239447,0.0649 0.210552,0.261283 -0.03995,0.271344 -0.233314,0.406101 -0.376833,0.262585 z M 15.689737,21.624926 c -0.109322,-0.284887 -0.0056,-0.618604 0.19223,-0.618604 0.117348,0 0.178824,0.120638 0.178824,0.350917 0,0.380307 -0.256756,0.565539 -0.371054,0.267687 z m 7.695781,-0.131586 c -0.03689,-0.09609 -0.03548,-0.22577 0.0032,-0.288178 0.03858,-0.06241 -0.01077,-0.144513 -0.109652,-0.182457 -0.289244,-0.110992 -0.226679,-0.832738 0.09868,-1.138396 0.441502,-0.414766 0.912985,-0.276579 0.93418,0.273798 0.0052,0.135655 0.03681,0.178968 0.07018,0.09625 0.03339,-0.08272 0.131462,-0.150393 0.217966,-0.150393 0.174266,0 0.317576,0.819562 0.160301,0.91676 -0.05335,0.03297 -0.097,0.192113 -0.097,0.353639 0,0.210499 -0.06615,0.293685 -0.233527,0.293685 -0.12844,0 -0.269905,-0.05886 -0.314369,-0.130797 -0.05821,-0.09419 -0.117444,-0.09419 -0.211632,0 -0.184112,0.184113 -0.438995,0.162514 -0.51821,-0.04391 z M 23.7609,21.42742 c -0.0409,-0.06618 -0.128501,-0.120315 -0.194674,-0.120315 -0.06618,0 -0.08685,0.05414 -0.04596,0.120315 0.04089,0.06617 0.128501,0.120314 0.194674,0.120314 0.06617,0 0.08685,-0.05414 0.04596,-0.120314 z m 0.653083,-0.190883 c -0.08713,-0.104987 -0.188505,-0.410564 -0.22528,-0.67906 -0.112936,-0.824585 -0.669384,-0.907175 -0.900753,-0.133693 -0.06283,0.210048 0.0209,0.328755 0.438268,0.621255 0.583502,0.408945 0.9538,0.512047 0.687765,0.191498 z m 0.20165,-0.618732 c -0.122303,-0.1223 -0.223215,0.06183 -0.12287,0.224191 0.0758,0.122651 0.104143,0.122746 0.144897,4.83e-4 0.02785,-0.08359 0.01796,-0.184697 -0.02202,-0.224677 z m -11.308197,0.749462 c 0.112875,-0.305549 0.277006,-0.416938 0.617778,-0.419258 0.148888,-9.4e-4 0.270708,-0.05918 0.270708,-0.129257 0,-0.07008 0.05502,-0.09341 0.122275,-0.05185 0.194124,0.119975 0.01117,0.299573 -0.305161,0.299573 -0.158947,0 -0.402733,0.121818 -0.541743,0.270707 -0.230027,0.246373 -0.244759,0.249076 -0.163857,0.03008 z m 0.16528,-1.05275 c -0.131125,-0.215061 -0.232329,-0.553444 -0.224903,-0.751963 0.009,-0.239451 0.03134,-0.279948 0.06646,-0.120315 0.112839,0.512802 0.323603,0.919198 0.564059,1.087621 0.215266,0.150776 0.221193,0.175679 0.04181,0.175679 -0.114953,0 -0.316293,-0.17596 -0.447422,-0.391022 z m 0.375088,0.04055 c -0.09818,-0.06217 -0.140251,-0.21091 -0.10153,-0.358981 0.03637,-0.139053 0.01704,-0.283142 -0.0429,-0.3202 -0.190184,-0.117542 -0.117625,-0.72998 0.111003,-0.936886 0.258725,-0.23414 0.818769,-0.264531 0.897899,-0.04873 0.04201,0.114575 0.09061,0.117072 0.204077,0.01048 0.184128,-0.172972 0.03878,-0.441573 -0.191181,-0.353325 -0.09256,0.03552 -0.168302,0.0084 -0.168302,-0.06032 0,-0.0687 0.121817,-0.107606 0.270705,-0.08646 0.358004,0.05084 0.442941,0.544718 0.115374,0.670841 -0.174708,0.06727 -0.208787,0.149247 -0.137237,0.330119 0.09073,0.229369 0.09558,0.229839 0.103645,0.01003 0.01426,-0.388697 0.139487,-0.125986 0.192113,0.403008 0.0393,0.395202 0.0064,0.512971 -0.157211,0.563329 -0.113807,0.03502 -0.286478,0.105227 -0.383716,0.156021 -0.114776,0.05996 -0.24832,0.0041 -0.380667,-0.159074 -0.112123,-0.138283 -0.249047,-0.206392 -0.304265,-0.151351 -0.05522,0.05504 0.0046,0.176858 0.132953,0.270706 0.251873,0.184177 0.115528,0.23574 -0.160755,0.06079 z m 0.985986,-0.552032 c -0.14183,-0.09934 -0.295597,-0.356513 -0.341703,-0.571492 -0.04611,-0.21498 -0.107825,-0.431625 -0.137146,-0.481433 -0.08889,-0.151013 -0.485596,0.126621 -0.553847,0.387615 -0.07954,0.304163 0.553594,0.842626 0.993091,0.844596 l 0.297478,0.0013 L 14.83379,19.803 z m 21.396862,0.314133 c -0.113796,-0.07211 -0.122907,-0.128361 -0.0301,-0.185731 0.152609,-0.09432 0.373786,0.01197 0.373786,0.179634 0,0.139895 -0.128934,0.142182 -0.343705,0.0061 z m -4.931121,-0.614769 c 0,-0.165432 0.02733,-0.233109 0.06069,-0.150392 0.0334,0.08272 0.0334,0.218069 0,0.300785 -0.03336,0.08272 -0.06069,0.01504 -0.06069,-0.150393 z m -1.071482,-0.902356 c 0.0012,-0.264691 0.02596,-0.358807 0.05475,-0.209147 0.02878,0.14966 0.02769,0.366225 -0.0024,0.481256 -0.0301,0.115031 -0.05365,-0.0074 -0.05232,-0.272109 z m 0.210286,0.379085 c 0,-0.05252 0.08121,-0.176699 0.180471,-0.275959 0.09926,-0.09926 0.184277,-0.325493 0.188931,-0.502741 0.0046,-0.177249 0.05538,-0.430553 0.112727,-0.562899 0.06752,-0.155809 0.08056,-0.02858 0.03701,0.360943 -0.03878,0.346724 -0.162981,0.702094 -0.293202,0.838857 -0.124265,0.130508 -0.225935,0.194317 -0.225935,0.141799 z m 0.851699,-0.148483 c 0.0058,-0.140159 0.03428,-0.168668 0.07269,-0.07269 0.03476,0.08685 0.0305,0.190623 -0.0095,0.230602 -0.03999,0.03998 -0.06841,-0.03108 -0.06319,-0.157912 z m -9.311288,-0.127837 c -0.185342,-0.185342 -0.07789,-0.523868 0.166281,-0.523868 0.18715,0 0.239446,0.0649 0.210547,0.261282 -0.03995,0.271345 -0.233313,0.406102 -0.376828,0.262586 z m -1.426649,-0.481537 c -0.101144,-0.368698 -0.666485,-0.698591 -1.197181,-0.698591 -0.409501,0 -0.437238,-0.01912 -0.279907,-0.192969 0.09605,-0.106134 0.138422,-0.229182 0.09416,-0.273441 -0.04426,-0.04426 -0.01732,-0.08047 0.05989,-0.08047 0.0772,0 0.140367,0.07264 0.140367,0.161427 0,0.08878 0.207751,0.22367 0.461669,0.299746 0.543125,0.162724 0.901303,0.514855 0.837388,0.823252 -0.0399,0.19256 -0.05419,0.187779 -0.116391,-0.03895 z m -3.285979,-0.0388 c -0.104818,-0.169598 0.259737,-0.816468 0.546681,-0.970035 0.291848,-0.156192 0.737506,-0.111614 0.800557,0.08008 0.02463,0.07494 -0.222001,0.332108 -0.548109,0.571492 -0.645058,0.473514 -0.691792,0.492139 -0.799129,0.318465 z m 0.905985,-0.823743 c -0.152333,-0.05078 -0.7277,0.428899 -0.7277,0.606677 0,0.05801 0.195983,-0.04402 0.435514,-0.226718 0.239535,-0.182701 0.371018,-0.353682 0.292186,-0.379959 z m 11.935632,0.278796 c 0.0012,-0.264691 0.02596,-0.358807 0.05475,-0.209148 0.02878,0.149661 0.02769,0.366226 -0.0024,0.481257 -0.0301,0.115031 -0.05366,-0.0074 -0.05232,-0.272109 z m -14.227415,0.07018 c 0,-0.147787 0.07769,-0.250655 0.189292,-0.250655 0.112043,0 0.173418,0.08186 0.150394,0.20058 -0.05854,0.30184 -0.339686,0.343285 -0.339686,0.05007 z m 15.409714,0.04011 c 0.0058,-0.140159 0.03428,-0.168669 0.07269,-0.07269 0.03476,0.08685 0.0305,0.190622 -0.0095,0.230602 -0.03999,0.03998 -0.06841,-0.03108 -0.06319,-0.157913 z m -1.212641,-0.920677 c 0,-0.26375 0.656258,-0.590723 0.832297,-0.414683 0.07162,0.07162 0.126784,0.241206 0.122592,0.37686 -0.0072,0.233916 -0.01322,0.232778 -0.115696,-0.02206 -0.118546,-0.294753 -0.420597,-0.264985 -0.688798,0.06788 -0.135256,0.16787 -0.150395,0.167064 -0.150395,-0.008 z M 18.406919,16.193755 c 0,-0.353088 0.0411,-0.430827 0.210548,-0.398195 0.14421,0.02777 0.210552,0.153235 0.210552,0.398195 0,0.24496 -0.06634,0.370424 -0.210552,0.398196 -0.169444,0.03263 -0.210548,-0.04511 -0.210548,-0.398196 z m 0.202502,-0.08272 c -0.03842,-0.09598 -0.06691,-0.06747 -0.07269,0.07269 -0.0052,0.126832 0.02323,0.197892 0.06319,0.157913 0.03999,-0.03998 0.04426,-0.143751 0.0095,-0.230602 z m 9.48279,0.118321 c -0.264693,-0.14 -0.417254,-0.276249 -0.33902,-0.302775 0.07823,-0.02653 0.313252,0.04021 0.522272,0.148296 0.35421,0.183169 0.395648,0.182398 0.609729,-0.01134 0.398039,-0.36022 0.27408,-0.446844 -0.522276,-0.364973 -0.554142,0.05697 -0.696756,0.04376 -0.542117,-0.0502 0.115419,-0.07013 0.486163,-0.160234 0.823881,-0.200233 0.787836,-0.09331 0.930929,0.08944 0.506124,0.646385 -0.35524,0.465743 -0.417892,0.473723 -1.058593,0.134842 z m 7.038378,0.07761 c 0,-0.108771 -0.05711,-0.152281 -0.135924,-0.103568 -0.08103,0.05007 -0.11443,0.01953 -0.08271,-0.07561 0.100626,-0.301878 0.338951,-0.262544 0.338951,0.05594 0,0.170947 -0.02708,0.310812 -0.06016,0.310812 -0.03307,0 -0.06016,-0.08441 -0.06016,-0.187572 z M 26.90912,15.933075 c -0.138439,-0.138438 -0.08762,-0.280733 0.10026,-0.280733 0.09926,0 0.180471,0.08121 0.180471,0.180471 0,0.187879 -0.142292,0.238699 -0.280731,0.100262 z m -3.490516,-1.453699 c -0.112847,-0.182594 0.136631,-0.464438 0.282228,-0.318841 0.09369,0.09369 0.08117,0.171298 -0.04444,0.275543 -0.09617,0.07982 -0.203177,0.0993 -0.237791,0.0433 z m 5.059843,-1.353632 c -0.0346,-0.132346 -0.01387,-0.240629 0.04613,-0.240629 0.05998,0 0.10905,0.108283 0.10905,0.240629 0,0.132346 -0.02074,0.240628 -0.04613,0.240628 -0.02535,0 -0.07444,-0.108282 -0.10905,-0.240628 z m 0.225835,-0.474373 c 0.516666,-0.123516 0.678598,-0.243277 0.601301,-0.444708 -0.03649,-0.09507 0.01495,-0.204043 0.11427,-0.24216 0.177976,-0.0683 0.851747,0.143321 1.070526,0.336226 0.108482,0.09566 -0.373401,-0.02302 -0.804004,-0.197998 -0.160305,-0.06514 -0.210552,-0.02607 -0.210552,0.163708 0,0.298261 -0.338711,0.502969 -0.804213,0.486047 l -0.338771,-0.01232 0.371443,-0.0888 z m 2.165505,-0.384576 c 0.0352,-0.05696 0.155559,-0.105332 0.267457,-0.107493 0.111895,-0.0022 0.501226,-0.108675 0.865174,-0.2367 0.363953,-0.128025 0.807754,-0.23454 0.986228,-0.236701 0.178474,-0.0022 0.579061,-0.139281 0.890199,-0.304713 0.311133,-0.165432 0.706524,-0.295347 0.878644,-0.288699 0.240564,0.0093 0.203029,0.03783 -0.162282,0.12343 -0.261377,0.06124 -0.563589,0.191311 -0.671585,0.289047 -0.107997,0.09774 -0.510425,0.235759 -0.894282,0.306718 -0.383853,0.07096 -0.839623,0.186014 -1.012812,0.255675 -0.466085,0.187471 -1.220425,0.318662 -1.146741,0.199436 z m 4.351039,-1.266074 c 0.08271,-0.03338 0.218067,-0.03338 0.300786,0 0.08271,0.03338 0.01503,0.06069 -0.150396,0.06069 -0.165432,0 -0.233108,-0.02731 -0.15039,-0.06069 z m 0.661727,-0.0033 c 0.115802,-0.03026 0.305299,-0.03026 0.421099,0 0.115802,0.03026 0.02106,0.05502 -0.210551,0.05502 -0.231602,0 -0.326353,-0.02476 -0.210548,-0.05502 z m 0.751961,-0.09791 c 0.281451,-0.09716 1.487253,-0.130136 1.43101,-0.03914 -0.03388,0.05481 -0.396786,0.09539 -0.80646,0.09017 -0.409674,-0.0052 -0.690719,-0.02819 -0.62455,-0.05104 z m 1.624245,-0.04801 c 0,-0.06849 0.0819,-0.0931 0.182002,-0.05469 0.100103,0.03841 0.271332,-0.0039 0.380509,-0.09401 0.169637,-0.140027 0.189936,-0.13761 0.139581,0.01662 -0.06671,0.204326 -0.702092,0.323858 -0.702092,0.132082 z M 26.467967,46.573085 c -0.09926,-0.06414 -0.288753,-0.113654 -0.4211,-0.110015 -0.240628,0.0067 -0.240628,0.0067 0,0.110015 0.132347,0.05687 0.32184,0.106378 0.4211,0.110015 0.160421,0.0059 0.160421,-0.0064 0,-0.110015 z m 3.669583,-0.193278 c 0.59252,-0.138534 2.455652,-0.881638 3.425419,-1.366217 0.498239,-0.248963 1.528517,-0.686232 2.289504,-0.971709 0.760987,-0.285475 1.426263,-0.554864 1.47839,-0.598641 0.194473,-0.163319 -1.223901,0.1068 -2.558951,0.487334 -1.826766,0.520692 -4.822208,1.864496 -5.185155,2.326146 -0.24867,0.316296 -0.252106,0.33956 -0.04084,0.27642 0.126877,-0.03791 0.393109,-0.106918 0.591628,-0.153333 z m -1.014761,-0.05159 c 0.322917,-0.172818 0.289553,-0.381298 -0.09891,-0.618056 -0.181556,-0.110655 -0.505514,-0.318654 -0.719903,-0.46222 l -0.389801,-0.26103 -0.120744,0.317582 c -0.0887,0.233305 -0.07469,0.427804 0.0528,0.732927 0.152521,0.365037 0.226249,0.415345 0.608688,0.415345 0.239334,0 0.539874,-0.05605 0.667868,-0.124546 z M 17.847152,44.678136 c -0.03866,-0.283488 -0.02889,-0.296408 0.06839,-0.09023 0.09324,0.197635 0.115033,0.204409 0.121982,0.03791 0.01214,-0.29064 -0.206228,-0.819954 -0.338249,-0.819954 -0.06161,0 -0.08566,0.100827 -0.05343,0.224061 0.0417,0.159479 -0.02222,0.245699 -0.221813,0.299141 -0.524647,0.140481 -1.168037,0.07893 -1.566908,-0.149905 -0.673474,-0.386373 -0.939312,-0.427412 -0.939312,-0.145009 0,0.320179 0.287756,0.462429 1.480436,0.731841 1.41149,0.31884 1.503633,0.313253 1.448909,-0.08785 z m 1.86943,0.101307 c 0.109487,-0.06934 0.140038,-0.211692 0.08904,-0.414885 -0.08792,-0.350303 -1.020078,-0.963456 -1.365271,-0.898046 -0.257672,0.04882 -0.342849,0.624018 -0.162612,1.098079 0.110219,0.289892 0.183848,0.3239 0.697692,0.322253 0.31596,-9.4e-4 0.649478,-0.04934 0.741151,-0.107401 z m -2.332336,-0.612642 c 0.213228,-0.09163 0.202952,-0.104364 -0.09023,-0.111857 -0.181974,-0.0046 -0.330866,0.04568 -0.330866,0.111857 0,0.141214 0.09248,0.141214 0.4211,0 z m -0.719244,-0.330864 c -0.0458,-0.115802 -0.112816,-0.38651 -0.148932,-0.601571 -0.0586,-0.349006 -0.108379,-0.391021 -0.463188,-0.391021 -0.901777,0 -1.361914,0.486416 -0.683899,0.722954 0.181978,0.06349 0.466218,0.192548 0.631651,0.286808 0.443243,0.252548 0.767714,0.244162 0.664368,-0.01717 z m 12.857691,-1.163123 c 0.277678,-0.828421 0.180009,-1.268968 -0.32034,-1.444932 -0.58341,-0.205174 -0.717444,0.178856 -0.481381,1.379234 0.210724,1.071549 0.457779,1.091794 0.801721,0.0657 z m -0.711857,-0.797252 c -0.108704,-0.17589 0.16813,-0.475987 0.439091,-0.475987 0.255357,0 0.298234,0.240477 0.08152,0.457194 -0.177779,0.177778 -0.417008,0.186415 -0.520608,0.01879 z m 6.259595,1.457761 c 0.264693,-0.05814 0.903256,-0.142874 1.419034,-0.188296 0.659859,-0.05811 0.998593,-0.145873 1.142987,-0.296132 0.112864,-0.117451 0.327024,-0.276935 0.475912,-0.354409 0.185563,-0.09656 0.270709,-0.249964 0.270709,-0.487733 0,-0.545169 0.114262,-0.715454 0.532752,-0.793962 0.254253,-0.0477 0.459668,-0.192304 0.592432,-0.417051 0.111774,-0.18922 0.302923,-0.375678 0.424777,-0.414354 0.121857,-0.03867 0.459124,-0.29621 0.749489,-0.5723 l 0.52793,-0.50198 0.0417,-1.11942 c 0.04003,-1.075189 0.03155,-1.119422 -0.214694,-1.119422 -0.236148,0 -0.250483,0.04511 -0.181621,0.571493 0.06917,0.528729 0.04365,0.607332 -0.341062,1.050462 -0.378916,0.43645 -0.434901,0.463151 -0.630676,0.300785 -0.29083,-0.241206 -0.538512,-0.865101 -0.538512,-1.356489 0,-0.434878 0.331843,-0.835983 0.812122,-0.981629 0.369555,-0.11207 0.392578,-0.853182 0.03006,-0.968235 -0.303864,-0.09644 -0.304816,-0.267114 -0.0032,-0.588909 0.130534,-0.139309 0.455384,-0.485483 0.721885,-0.769274 l 0.484552,-0.515986 0,-1.078177 c 0,-0.989299 -0.01937,-1.078179 -0.234958,-1.078179 -0.210138,0 -0.227688,0.06139 -0.16614,0.581064 0.06279,0.530208 0.03488,0.619712 -0.318918,1.02267 -0.213256,0.242884 -0.465989,0.441608 -0.561628,0.441608 -0.238285,0 -0.637514,-0.921721 -0.640742,-1.479318 -0.0028,-0.51805 0.418504,-1.047281 0.834094,-1.047281 0.364941,0 0.346896,-0.754115 -0.0246,-1.028462 l -0.270709,-0.199909 0.330866,0.05608 c 0.181974,0.03085 0.330862,0.0095 0.330862,-0.04754 0,-0.057 -0.148888,-0.107061 -0.330862,-0.111257 -0.318038,-0.0073 -0.320369,-0.01185 -0.06016,-0.116436 0.148887,-0.05985 0.270704,-0.173014 0.270704,-0.251484 0,-0.07847 0.230103,-0.354976 0.511337,-0.61446 l 0.511333,-0.471786 0,-1.098249 0,-1.098251 -0.374216,-0.07725 c -0.370479,-0.07647 -0.372593,-0.07412 -0.211291,0.234985 0.240813,0.461489 0.199837,1.005991 -0.110433,1.467503 -0.392135,0.583285 -0.764037,0.603542 -0.993597,0.05412 -0.09933,-0.237733 -0.212079,-0.661876 -0.250551,-0.942537 -0.08463,-0.617472 0.185732,-1.016318 0.736947,-1.087154 l 0.360942,-0.04638 -0.0391,-0.933448 -0.0391,-0.93345 0.550448,-0.512601 c 0.522544,-0.486615 0.550383,-0.545412 0.549125,-1.159806 -0.0024,-1.09288 -0.116995,-1.549561 -0.389391,-1.549561 -0.194766,0 -0.221949,0.05003 -0.147099,0.270706 0.18117,0.534122 0.103966,1.028038 -0.228906,1.464457 -0.180596,0.23677 -0.405563,0.430492 -0.499928,0.430492 -0.289146,0 -0.556849,-0.557083 -0.624099,-1.298736 -0.06007,-0.662477 -0.04364,-0.721776 0.267871,-0.966815 0.182529,-0.143575 0.412097,-0.261048 0.510148,-0.261048 0.126169,0 0.157074,-0.07913 0.105734,-0.270707 -0.0399,-0.148888 -0.07329,-0.392524 -0.07419,-0.541413 -0.0012,-0.184819 -0.0739,-0.270707 -0.2294,-0.270707 -0.241568,0 -0.373814,-0.221905 -0.373814,-0.627253 0,-0.219399 -0.05462,-0.239304 -0.494679,-0.180279 -0.314232,0.04214 -0.625229,0.190563 -0.852555,0.406863 -0.596768,0.567821 -0.612429,0.671328 -0.215708,1.425513 0.477153,0.907079 0.458808,1.275952 -0.11048,2.221466 -0.440398,0.731446 -0.459048,0.800176 -0.300419,1.106931 0.18174,0.351453 0.20933,0.975006 0.06003,1.356784 -0.06315,0.161487 0.01527,0.440053 0.249083,0.884494 0.428776,0.81512 0.427454,1.121591 -0.0084,1.94846 -0.319713,0.606508 -0.348657,0.763859 -0.34301,1.864869 0.0052,1.013818 0.05058,1.291502 0.28928,1.769963 0.364217,0.730067 0.356545,1.044273 -0.04426,1.812711 -0.288154,0.552459 -0.327791,0.764577 -0.330862,1.770635 -0.0028,0.925503 0.04802,1.261693 0.267217,1.76686 0.379143,0.87378 0.352366,1.490075 -0.09902,2.27901 l -0.369723,0.646206 0.320236,0.676926 c 0.2654,0.561005 0.292656,0.702281 0.159171,0.824992 -0.175258,0.161116 -1.261416,0.604153 -2.868135,1.169894 -1.104946,0.389064 -1.46445,0.623591 -1.362626,0.888938 0.0741,0.193107 0.371423,0.209228 1.061841,0.05758 z m 5.113353,-18.827864 c 0,-0.104773 0.08572,-0.190497 0.190497,-0.190497 0.104774,0 0.169067,0.06429 0.142872,0.142873 -0.07436,0.223089 -0.333369,0.260091 -0.333369,0.04762 z M 27.121102,42.774596 c 0.233643,-0.233641 0.235368,-0.334914 0.01306,-0.764843 -0.223572,-0.432339 -0.451075,-0.518752 -0.772681,-0.293492 -0.285688,0.200103 -0.351675,0.861412 -0.110063,1.103024 0.202458,0.202458 0.645307,0.179703 0.8697,-0.04469 z m 11.077499,0.06875 c 0.04089,-0.06617 0.02021,-0.120314 -0.04596,-0.120314 -0.06617,0 -0.153775,0.05414 -0.19467,0.120314 -0.0409,0.06618 -0.02021,0.120314 0.04596,0.120314 0.06618,0 0.153774,-0.05414 0.194673,-0.120314 z m 1.02267,-1.27044 c 0,-0.03381 -0.108282,-0.0035 -0.240628,0.0673 -0.15015,0.08036 -0.240459,0.251596 -0.240178,0.455411 l 4.02e-4,0.326631 0.240178,-0.393929 c 0.132065,-0.216661 0.240146,-0.421596 0.240146,-0.455411 z M 28.392996,40.90412 c 0,-0.06617 -0.05414,-0.08685 -0.120314,-0.04596 -0.06617,0.04089 -0.120315,0.128499 -0.120315,0.194672 0,0.06618 0.05414,0.08685 0.120315,0.04596 0.06617,-0.04089 0.120314,-0.128498 0.120314,-0.194671 z M 12.776214,40.65363 c -0.07941,-0.07941 -0.144379,-0.265707 -0.144379,-0.413999 0,-0.148292 -0.05414,-0.303084 -0.120313,-0.343981 -0.07118,-0.04399 -0.120314,0.09233 -0.120314,0.33379 0,0.451981 0.07073,0.568566 0.344903,0.568566 0.143486,0 0.152396,-0.03208 0.0401,-0.144376 z m 0.596816,-0.763991 c 0.02142,-0.135651 -0.06558,-0.478439 -0.193339,-0.761747 -0.195108,-0.43268 -0.209732,-0.574844 -0.09137,-0.888411 0.156753,-0.415281 0.09893,-0.571609 -0.12762,-0.345056 -0.167209,0.16721 -0.20847,1.974338 -0.05373,2.35345 0.08174,0.200254 0.117348,0.208466 0.260891,0.06016 0.09143,-0.09447 0.183755,-0.282742 0.205174,-0.418393 z M 41.495524,39.42273 c -0.03167,-0.03165 -0.129228,0.06181 -0.216833,0.207685 -0.152187,0.253419 -0.149623,0.255983 0.05755,0.05755 0.119262,-0.114227 0.190936,-0.233582 0.159285,-0.265235 z M 13.666537,38.800791 c -0.04282,-0.111584 -0.104922,-0.175811 -0.138009,-0.142724 -0.03307,0.03309 -0.02512,0.151454 0.01768,0.263038 0.04282,0.111584 0.104927,0.175811 0.138013,0.142724 0.03307,-0.03309 0.02512,-0.151454 -0.01768,-0.263038 z m 27.925795,-0.317429 c -0.02878,-0.149661 -0.05342,-0.05554 -0.05475,0.209146 -0.0012,0.264692 0.02222,0.387141 0.05232,0.27211 0.0301,-0.115031 0.03123,-0.331596 0.0024,-0.481256 z m -1.377126,0.07746 c 0.03935,-0.03934 -0.03263,-0.24237 -0.159967,-0.451178 -0.127323,-0.208809 -0.231703,-0.477596 -0.231947,-0.597303 -2.42e-4,-0.125271 -0.05565,-0.183532 -0.130514,-0.137266 -0.13018,0.08046 -0.09026,0.376993 0.128046,0.951182 0.11345,0.298399 0.249582,0.379365 0.394382,0.234565 z m 0.251238,-0.71437 c -0.09544,-0.248702 -0.162346,-0.219395 -0.162346,0.07111 0,0.136251 0.05178,0.215729 0.115061,0.176617 0.06328,-0.03911 0.08456,-0.150589 0.04728,-0.247729 z m -0.162346,-0.544661 c 0,-0.06227 -0.05414,-0.113213 -0.120314,-0.113213 -0.06617,0 -0.120314,0.08441 -0.120314,0.187572 0,0.103164 0.05414,0.154111 0.120314,0.113213 0.06617,-0.04089 0.120314,-0.125304 0.120314,-0.187572 z m 0.360942,-0.474155 c 0,-0.06617 -0.02387,-0.120314 -0.05305,-0.120314 -0.02918,0 -0.08652,0.05414 -0.127416,0.120314 -0.04089,0.06618 -0.017,0.120313 0.05306,0.120313 0.07008,0 0.127415,-0.05414 0.127415,-0.120313 z m 0.962517,-0.331503 c 0,-0.41072 -0.03814,-0.463761 -0.4195,-0.583119 -0.230726,-0.07222 -0.436616,-0.114189 -0.45753,-0.09328 -0.0209,0.02091 -0.01571,0.229177 0.01158,0.462805 0.04092,0.350524 0.09863,0.424778 0.330115,0.424778 0.154285,0 0.313983,0.05414 0.354877,0.120314 0.133114,0.21538 0.180471,0.128388 0.180471,-0.331503 z m -28.695953,0.05556 c 0.264126,-0.14959 0.498533,-0.3788 0.520901,-0.509356 0.03681,-0.21494 0.02198,-0.211697 -0.156876,0.03431 -0.108652,0.149425 -0.3972,0.377134 -0.64122,0.506017 -0.24402,0.128884 -0.389532,0.235836 -0.323359,0.237672 0.06617,0.0019 0.336424,-0.119053 0.600554,-0.268644 z m 27.613122,-1.24271 c 0,-0.159873 -0.03268,-0.168094 -0.180471,-0.04543 -0.09926,0.08238 -0.180471,0.170219 -0.180471,0.195202 0,0.02499 0.08121,0.04542 0.180471,0.04542 0.09926,0 0.180471,-0.08784 0.180471,-0.195203 z M 13.474038,34.342287 c 0,-0.150539 -0.09227,-0.467196 -0.205042,-0.703681 -0.169451,-0.355347 -0.180551,-0.494848 -0.06395,-0.803756 0.163451,-0.433033 0.08339,-0.654279 -0.162821,-0.449944 -0.207517,0.172227 -0.236231,1.846672 -0.04046,2.359483 0.124711,0.326673 0.135389,0.330406 0.300786,0.105151 0.09432,-0.12845 0.171485,-0.356713 0.171485,-0.507253 z m 28.153519,-0.165791 c 0,-0.170923 -0.05759,-0.14472 -0.312219,0.142054 -0.227969,0.256752 -0.227748,0.257374 0.04151,0.116082 0.148888,-0.07813 0.270709,-0.19429 0.270709,-0.258136 z m 0.08218,-0.619897 c -0.03842,-0.09598 -0.06692,-0.06747 -0.07269,0.07269 -0.0052,0.12683 0.02323,0.197891 0.06319,0.157912 0.03999,-0.03998 0.04426,-0.143752 0.0095,-0.230603 z M 13.834981,33.434782 c 0,-0.194359 -0.03557,-0.229114 -0.133894,-0.130798 -0.07364,0.07364 -0.09752,0.192752 -0.05306,0.264691 0.124453,0.201368 0.186954,0.156606 0.186954,-0.133893 z m 26.550601,-0.225863 c 0.09261,-0.09261 0.04796,-0.211274 -0.156406,-0.415632 -0.162242,-0.162243 -0.28602,-0.428964 -0.28602,-0.616337 0,-0.242068 -0.03569,-0.294631 -0.133572,-0.196743 -0.09788,0.09789 -0.07923,0.297174 0.06982,0.745948 0.210046,0.63239 0.285032,0.703906 0.506173,0.482764 z m -0.02134,-1.314159 c 0.0409,-0.06617 0.01704,-0.120314 -0.05305,-0.120314 -0.07008,0 -0.127416,0.05414 -0.127416,0.120314 0,0.06617 0.02387,0.120314 0.05305,0.120314 0.02918,0 0.08652,-0.05414 0.127416,-0.120314 z m 0.421099,-0.481257 c 0,-0.06617 -0.02387,-0.120314 -0.05305,-0.120314 -0.02918,0 -0.08652,0.05414 -0.127416,0.120314 -0.04089,0.06617 -0.017,0.120314 0.05306,0.120314 0.07007,0 0.127414,-0.05414 0.127414,-0.120314 z M 12.982742,31.096421 c 0.165112,-0.144457 -0.226498,-0.0103 -0.418158,0.143249 -0.220212,0.176425 -0.21637,0.17893 0.06724,0.04386 0.165434,-0.07879 0.323347,-0.162985 0.35092,-0.187108 z m 28.765116,-0.122326 c 0,-0.317541 -0.06191,-0.400833 -0.380454,-0.511878 -0.441036,-0.153746 -0.453012,-0.14728 -0.531768,0.287037 -0.07726,0.426099 0.08215,0.604092 0.541048,0.604092 0.336186,0 0.371174,-0.03574 0.371174,-0.379251 z M 13.59434,30.607175 c 0,-0.10796 -0.01411,-0.173731 -0.03134,-0.146159 -0.01724,0.02757 -0.139066,0.179827 -0.270705,0.338345 l -0.239347,0.288213 0.270705,-0.142054 c 0.148887,-0.07813 0.270709,-0.230384 0.270709,-0.338345 z m -0.212055,-1.782928 c -0.01736,-0.329489 -0.03842,-0.912398 -0.04672,-1.295356 -0.0098,-0.45106 -0.06224,-0.68093 -0.148888,-0.65269 -0.243007,0.07921 -0.43496,0.848133 -0.36679,1.46929 0.103456,0.942655 0.180657,1.159224 0.397988,1.116425 0.15504,-0.03054 0.189392,-0.16378 0.164412,-0.637669 z m 28.463623,-0.05102 c 0.03227,-0.09685 -0.06242,-0.07701 -0.264511,0.05541 -0.384264,0.251779 -0.402991,0.323773 -0.05029,0.193299 0.145484,-0.05381 0.287142,-0.165734 0.314799,-0.248705 z M 13.845179,27.911781 c -0.105991,-0.264972 -0.115889,-0.267993 -0.122902,-0.03752 -0.0042,0.137861 0.02845,0.28675 0.07258,0.330864 0.143704,0.1437 0.168141,0.0012 0.05032,-0.293344 z M 40.544713,27.74392 c 0.09821,-0.118342 0.104745,-0.180471 0.01897,-0.180471 -0.158371,0 -0.390295,-0.411313 -0.508797,-0.902356 l -0.08711,-0.360942 -0.0123,0.38392 c -0.0068,0.211156 0.04182,0.417381 0.107997,0.458279 0.06617,0.0409 0.120314,0.233588 0.120314,0.4282 0,0.388914 0.130168,0.451437 0.360942,0.17337 z m 1.443773,-2.222372 c 0,-0.302102 -0.06059,-0.373383 -0.391023,-0.459992 -0.369196,-0.09677 -0.395519,-0.08202 -0.471603,0.264294 -0.105557,0.480439 -0.04655,0.553201 0.448624,0.553201 0.378906,0 0.414002,-0.0303 0.414002,-0.357503 z m -28.619431,-0.09367 c 0.152741,-0.19476 0.147079,-0.197314 -0.0755,-0.03405 -0.132347,0.09708 -0.26319,0.191825 -0.290759,0.210551 -0.02757,0.01872 0.0064,0.03404 0.0755,0.03404 0.0691,0 0.199943,-0.09475 0.290759,-0.210551 z m -0.408392,-1.203142 c -0.104339,-0.115803 -0.212352,-0.400045 -0.240021,-0.63165 -0.05029,-0.420928 -0.05031,-0.420901 -0.06956,0.06618 -0.01837,0.464624 0.13589,0.776026 0.384396,0.776026 0.0632,0 0.02954,-0.09475 -0.07481,-0.21055 z m 0.513362,-0.623457 c 0,-0.1862 -0.114723,-0.597899 -0.254943,-0.914882 -0.207224,-0.468469 -0.275728,-0.539183 -0.366026,-0.377831 -0.06988,0.124867 -0.06457,0.285425 0.01431,0.432817 0.06897,0.128873 0.125397,0.376784 0.125397,0.550918 0,0.393644 0.214109,0.812634 0.366983,0.718154 0.06285,-0.03885 0.114278,-0.222974 0.114278,-0.409176 z m 28.208013,-0.02751 c 0.168548,-0.07679 0.306448,-0.186981 0.306448,-0.244861 0,-0.09989 -0.201067,-0.01356 -0.601574,0.258303 -0.243843,0.165518 -0.08141,0.15812 0.295126,-0.01344 z m -1.032165,-1.225724 c 0.102579,-0.123603 0.07908,-0.212474 -0.09877,-0.373417 -0.12836,-0.116166 -0.268675,-0.371891 -0.311809,-0.56828 -0.04314,-0.196389 -0.104299,-0.331195 -0.135927,-0.29957 -0.0788,0.0788 0.236123,1.403476 0.333655,1.403476 0.04302,0 0.138804,-0.07299 0.212847,-0.162209 z m -8.706572,-0.557638 c -0.185068,-0.357886 -0.186274,-0.358227 -0.424186,-0.120315 -0.30832,0.308319 -0.302468,0.333246 0.09227,0.393045 0.181974,0.02757 0.372862,0.05823 0.424189,0.06815 0.05133,0.0099 0.0098,-0.14348 -0.09227,-0.340879 z m 8.661569,-0.723923 c 0.0409,-0.06617 0.01704,-0.120314 -0.05305,-0.120314 -0.07008,0 -0.127415,0.05414 -0.127415,0.120314 0,0.06618 0.02387,0.120314 0.05305,0.120314 0.02918,0 0.08652,-0.05414 0.127415,-0.120314 z m 1.383616,-0.884105 c 0,-0.358818 -0.05303,-0.423681 -0.485183,-0.593435 l -0.485182,-0.190585 0.07868,0.443042 c 0.09404,0.529557 0.140508,0.58709 0.530747,0.657097 0.165429,0.02968 0.314321,0.06134 0.330862,0.07034 0.01656,0.009 0.03006,-0.164898 0.03006,-0.386464 z m -1.203145,-1.101078 c 0,-0.03309 -0.108281,-0.16844 -0.240628,-0.300786 -0.233651,-0.233653 -0.240628,-0.233944 -0.240628,-0.01003 0,0.126831 0.06767,0.257911 0.150395,0.291287 0.20734,0.08366 0.330861,0.09095 0.330861,0.01952 z M 13.315585,16.953238 c -0.03842,-0.09598 -0.06691,-0.06747 -0.07269,0.07269 -0.0052,0.126831 0.02323,0.197891 0.06319,0.157912 0.03999,-0.03998 0.04426,-0.14375 0.0095,-0.230602 z m 0.595819,-1.625508 c -0.06141,-0.0614 -0.55879,1.117167 -0.552609,1.309428 0.0028,0.08699 0.138101,-0.162219 0.300677,-0.553802 0.162571,-0.391585 0.275941,-0.731616 0.251932,-0.755626 z m 5.714052,-0.607824 c -0.202933,-0.169634 -0.267338,-0.403436 -0.331413,-1.203141 -0.04374,-0.545926 -0.125892,-0.992592 -0.182549,-0.992592 -0.05666,0 -0.103017,0.171202 -0.103017,0.38045 0,0.209248 -0.136168,0.612803 -0.302594,0.896789 l -0.302597,0.51634 0.450838,0.306351 c 0.247962,0.168494 0.579624,0.306353 0.737023,0.306353 l 0.286185,0 -0.251876,-0.21055 z m 8.045643,-0.277807 c 0,-0.06227 -0.08291,-0.113214 -0.184249,-0.113214 -0.328479,0 -0.356148,-0.375342 -0.04508,-0.611645 L 27.731256,13.497327 27.454394,13.2213 c -0.208763,-0.208134 -0.257386,-0.22424 -0.197679,-0.06548 0.05815,0.1546 0.01821,0.21055 -0.150254,0.21055 -0.12619,0 -0.291815,-0.06238 -0.368055,-0.138617 -0.227825,-0.227825 -0.452357,0.405746 -0.314707,0.888012 0.09743,0.341348 0.175693,0.402291 0.589635,0.459142 0.516999,0.071 0.657765,0.04259 0.657765,-0.132809 z M 19.75242,14.302817 c -0.08634,-0.08633 -0.142373,-0.09344 -0.142373,-0.01805 0,0.160594 0.142285,0.302878 0.22258,0.222581 0.0342,-0.03419 -0.002,-0.126229 -0.08021,-0.204534 z m -4.764554,-0.671724 c 0.205254,-0.247587 0.227,-0.35302 0.120314,-0.583313 -0.18441,-0.398054 -0.288448,-0.351351 -0.374687,0.168199 -0.04119,0.248148 -0.122508,0.613602 -0.180716,0.812121 -0.08936,0.30479 -0.08324,0.325492 0.03935,0.133073 0.07985,-0.125328 0.257929,-0.363864 0.395728,-0.53008 z m 12.923861,0.400783 c 0,-0.11179 -0.07,-0.149835 -0.190562,-0.103571 -0.153425,0.05888 -0.159288,0.09295 -0.03006,0.174852 0.213691,0.13546 0.220639,0.133216 0.220639,-0.07128 z m 4.783089,-0.154169 c 0.03243,-0.09851 -0.07846,-0.150393 -0.321441,-0.150393 -0.357442,0 -0.464442,0.107049 -0.285683,0.285808 0.129236,0.129234 0.550946,0.03517 0.607124,-0.135415 z m -9.910282,-0.446945 c 0.106871,-0.163104 0.196112,-0.366134 0.198314,-0.451178 0.002,-0.08504 0.111212,-0.283345 0.242252,-0.440667 0.229629,-0.275691 0.264218,-0.280932 0.956022,-0.144828 0.565555,0.111267 0.775708,0.109112 0.990966,-0.01016 0.251652,-0.139436 0.216267,-0.158891 -0.448688,-0.246695 -2.312628,-0.305372 -2.3758,-0.307624 -2.433561,-0.08674 -0.06235,0.238427 -0.899904,0.593992 -1.399177,0.593992 -0.276203,0 -0.190329,0.07566 0.485275,0.427572 0.451478,0.235165 0.872299,0.478801 0.935165,0.541414 0.174531,0.173833 0.261916,0.140109 0.473432,-0.182711 z M 15.63048,12.836041 c 0.07732,-0.09316 0.327586,-0.258129 0.556146,-0.366588 0.319388,-0.151559 0.415566,-0.270829 0.415566,-0.515335 0,-0.287499 -0.01479,-0.297912 -0.153566,-0.108121 -0.214506,0.293355 -0.60874,0.133727 -0.522119,-0.211409 0.128102,-0.510389 -0.09917,-0.574969 -0.514693,-0.146256 -0.246644,0.254473 -0.345582,0.43745 -0.263849,0.487964 0.07193,0.04445 0.130771,0.294191 0.130771,0.554977 0,0.494403 0.113061,0.592364 0.351744,0.304768 z m 2.688214,-0.803667 c -0.0354,-0.135394 0.06846,-0.254432 0.318629,-0.365166 0.204133,-0.09036 0.371154,-0.198509 0.371154,-0.240334 0,-0.04183 -0.296939,-0.100671 -0.659863,-0.130767 -0.406812,-0.03374 -0.752986,-0.138995 -0.902689,-0.274473 -0.215611,-0.195125 -0.298933,-0.202941 -0.743526,-0.06974 -0.370289,0.110941 -0.45638,0.178071 -0.330535,0.257732 0.0936,0.05925 0.263888,0.108545 0.378427,0.109559 0.121496,0.0011 0.240013,0.128353 0.284473,0.305497 0.06911,0.275361 0.116971,0.296295 0.513628,0.224668 0.240576,-0.04344 0.403878,-0.04278 0.362887,0.0015 -0.04099,0.04425 -0.282624,0.09913 -0.536972,0.121957 -0.370291,0.03323 -0.477973,0.09956 -0.540369,0.332855 l -0.07792,0.291359 0.807605,-0.181873 c 0.647742,-0.145874 0.797204,-0.221637 0.755071,-0.38275 z m -1.114931,-0.462119 c 0,-0.06145 -0.08508,-0.196799 -0.189064,-0.300785 -0.164689,-0.164689 -0.165734,-0.189065 -0.0081,-0.189065 0.09953,0 0.214238,0.104853 0.254912,0.233006 0.04068,0.128153 0.19321,0.256133 0.338971,0.284401 0.220298,0.04272 0.209185,0.05416 -0.06585,0.06778 -0.181975,0.009 -0.330862,-0.03389 -0.330862,-0.09534 z m 4.376775,0.65152 c 0.239687,-0.100147 0.435791,-0.264271 0.435791,-0.364718 0,-0.302846 0.273611,-0.320877 1.75674,-0.115776 1.140359,0.157701 1.473725,0.167238 1.695573,0.04851 0.203973,-0.109163 0.477174,-0.11774 1.045396,-0.03282 0.766593,0.114566 0.89263,0.09367 1.698474,-0.281599 0.198516,-0.09245 0.743273,-0.241645 1.210564,-0.331551 0.467296,-0.08991 1.41477,-0.327952 2.105501,-0.528993 2.510002,-0.730551 5.233148,-1.3498751 6.043518,-1.3744779 0.785288,-0.023843 0.80273,-0.030803 0.445653,-0.1778041 -0.673562,-0.2772978 -7.831068,-1.2306221 -9.239432,-1.2306221 -1.044182,0 -2.859756,0.4136799 -9.502184,2.1650762 -1.870017,0.4930649 -1.94927,0.5261199 -1.760778,0.7344039 0.109668,0.12118 0.445184,0.249538 0.755015,0.288844 1.181878,0.149937 1.339679,0.193055 1.339679,0.366052 0,0.09607 -0.175958,0.251625 -0.391022,0.345676 l -0.39102,0.171001 0.427116,0.0098 c 0.234914,0.0054 0.479484,0.06218 0.543491,0.126192 0.103427,0.103425 0.848371,0.320549 1.210435,0.352794 0.07463,0.0067 0.331806,-0.06985 0.57149,-0.17 z m -0.326196,-0.499694 c -0.162604,-0.162604 -0.07206,-0.400841 0.226755,-0.59663 0.428844,-0.28099 0.650864,-0.05896 0.369876,0.369876 -0.195791,0.298813 -0.434028,0.389357 -0.596631,0.226754 z"
     id="path2990"
     inkscape:connector-curvature="0" />
</svg>
