<?xml version="1.0" encoding="UTF-8" standalone="no"?>
<!-- Created with Inkscape (http://www.inkscape.org/) -->

<svg
   xmlns:osb="http://www.openswatchbook.org/uri/2009/osb"
   xmlns:dc="http://purl.org/dc/elements/1.1/"
   xmlns:cc="http://creativecommons.org/ns#"
   xmlns:rdf="http://www.w3.org/1999/02/22-rdf-syntax-ns#"
   xmlns:svg="http://www.w3.org/2000/svg"
   xmlns="http://www.w3.org/2000/svg"
   xmlns:xlink="http://www.w3.org/1999/xlink"
   xmlns:sodipodi="http://sodipodi.sourceforge.net/DTD/sodipodi-0.dtd"
   xmlns:inkscape="http://www.inkscape.org/namespaces/inkscape"
   version="1.0"
   width="55"
   height="55"
   id="svg2381"
   sodipodi:version="0.32"
   inkscape:version="0.48.3.1 r9886"
   sodipodi:docname="clean-energyon3.svg"
   inkscape:output_extension="org.inkscape.output.svg.inkscape">
  <metadata
     id="metadata3470">
    <rdf:RDF>
      <cc:Work
         rdf:about="">
        <dc:format>image/svg+xml</dc:format>
        <dc:type
           rdf:resource="http://purl.org/dc/dcmitype/StillImage" />
        <dc:title></dc:title>
      </cc:Work>
    </rdf:RDF>
  </metadata>
  <sodipodi:namedview
     inkscape:window-height="745"
     inkscape:window-width="1280"
     inkscape:pageshadow="2"
     inkscape:pageopacity="0.0"
     guidetolerance="10.0"
     gridtolerance="10.0"
     objecttolerance="10.0"
     borderopacity="1.0"
     bordercolor="#666666"
     pagecolor="#ffffff"
     id="base"
     showgrid="false"
     inkscape:zoom="8"
     inkscape:cx="13.548717"
     inkscape:cy="38.255931"
     inkscape:window-x="0"
     inkscape:window-y="27"
     inkscape:current-layer="layer3-6"
     inkscape:window-maximized="1" />
  <defs
     id="defs2383">
    <inkscape:perspective
       sodipodi:type="inkscape:persp3d"
       inkscape:vp_x="0 : 250.18124 : 1"
       inkscape:vp_y="0 : 1000 : 0"
       inkscape:vp_z="487.29123 : 250.18124 : 1"
       inkscape:persp3d-origin="243.64561 : 166.7875 : 1"
       id="perspective3472" />
    <inkscape:perspective
       id="perspective2505"
       inkscape:persp3d-origin="27.5 : 18.333333 : 1"
       inkscape:vp_z="55 : 27.5 : 1"
       inkscape:vp_y="0 : 1000 : 0"
       inkscape:vp_x="0 : 27.5 : 1"
       sodipodi:type="inkscape:persp3d" />
    <inkscape:perspective
       sodipodi:type="inkscape:persp3d"
       inkscape:vp_x="0 : 250.18124 : 1"
       inkscape:vp_y="0 : 1000 : 0"
       inkscape:vp_z="487.29123 : 250.18124 : 1"
       inkscape:persp3d-origin="243.64561 : 166.7875 : 1"
       id="perspective3472-5" />
    <inkscape:perspective
       id="perspective2505-0"
       inkscape:persp3d-origin="27.5 : 18.333333 : 1"
       inkscape:vp_z="55 : 27.5 : 1"
       inkscape:vp_y="0 : 1000 : 0"
       inkscape:vp_x="0 : 27.5 : 1"
       sodipodi:type="inkscape:persp3d" />
    <linearGradient
       osb:paint="solid"
       id="linearGradient3914">
      <stop
         id="stop3916"
         offset="0"
         style="stop-color:#ffffff;stop-opacity:1;" />
    </linearGradient>
    <linearGradient
       osb:paint="solid"
       id="linearGradient5469">
      <stop
         id="stop5471"
         offset="0"
         style="stop-color:#000000;stop-opacity:0;" />
    </linearGradient>
    <linearGradient
       osb:paint="solid"
       id="linearGradient5483">
      <stop
         id="stop5485"
         offset="0"
         style="stop-color:#030000;stop-opacity:1;" />
    </linearGradient>
    <linearGradient
       osb:paint="solid"
       id="linearGradient5489">
      <stop
         id="stop5491"
         offset="0"
         style="stop-color:#855e29;stop-opacity:0;" />
    </linearGradient>
    <inkscape:perspective
       sodipodi:type="inkscape:persp3d"
       inkscape:vp_x="0 : 250.18124 : 1"
       inkscape:vp_y="0 : 1000 : 0"
       inkscape:vp_z="487.29123 : 250.18124 : 1"
       inkscape:persp3d-origin="243.64561 : 166.7875 : 1"
       id="perspective3472-6" />
    <inkscape:perspective
       id="perspective2505-4"
       inkscape:persp3d-origin="27.5 : 18.333333 : 1"
       inkscape:vp_z="55 : 27.5 : 1"
       inkscape:vp_y="0 : 1000 : 0"
       inkscape:vp_x="0 : 27.5 : 1"
       sodipodi:type="inkscape:persp3d" />
    <linearGradient
       gradientUnits="userSpaceOnUse"
       y2="169.76271"
       x2="-109.80681"
       y1="169.76271"
       x1="-255.75251"
       id="linearGradient5493-9"
       xlink:href="#linearGradient5489-6"
       inkscape:collect="always" />
    <linearGradient
       gradientUnits="userSpaceOnUse"
       y2="169.76271"
       x2="-109.80681"
       y1="169.76271"
       x1="-255.75251"
       id="linearGradient5487-7"
       xlink:href="#linearGradient5483-3"
       inkscape:collect="always" />
    <linearGradient
       gradientUnits="userSpaceOnUse"
       y2="218.57628"
       x2="-70.755959"
       y1="218.57628"
       x1="-198.26098"
       id="linearGradient5473-4"
       xlink:href="#linearGradient5469-8"
       inkscape:collect="always" />
    <linearGradient
       gradientUnits="userSpaceOnUse"
       y2="229.81708"
       x2="240.15466"
       y1="229.81708"
       x1="134.22627"
       id="linearGradient3918-3"
       xlink:href="#linearGradient3914-0"
       inkscape:collect="always" />
    <linearGradient
       osb:paint="solid"
       id="linearGradient3914-0">
      <stop
         id="stop3916-6"
         offset="0"
         style="stop-color:#ffffff;stop-opacity:1;" />
    </linearGradient>
    <linearGradient
       osb:paint="solid"
       id="linearGradient5469-8">
      <stop
         id="stop5471-4"
         offset="0"
         style="stop-color:#000000;stop-opacity:0;" />
    </linearGradient>
    <linearGradient
       osb:paint="solid"
       id="linearGradient5483-3">
      <stop
         id="stop5485-8"
         offset="0"
         style="stop-color:#030000;stop-opacity:1;" />
    </linearGradient>
    <linearGradient
       osb:paint="solid"
       id="linearGradient5489-6">
      <stop
         id="stop5491-0"
         offset="0"
         style="stop-color:#000000;stop-opacity:0;" />
    </linearGradient>
    <inkscape:perspective
       sodipodi:type="inkscape:persp3d"
       inkscape:vp_x="0 : 27.5 : 1"
       inkscape:vp_y="0 : 1000 : 0"
       inkscape:vp_z="55 : 27.5 : 1"
       inkscape:persp3d-origin="27.5 : 18.333333 : 1"
       id="perspective2505-7" />
    <inkscape:perspective
       id="perspective3472-1"
       inkscape:persp3d-origin="243.64561 : 166.7875 : 1"
       inkscape:vp_z="487.29123 : 250.18124 : 1"
       inkscape:vp_y="0 : 1000 : 0"
       inkscape:vp_x="0 : 250.18124 : 1"
       sodipodi:type="inkscape:persp3d" />
    <inkscape:perspective
       sodipodi:type="inkscape:persp3d"
       inkscape:vp_x="0 : 27.5 : 1"
       inkscape:vp_y="0 : 1000 : 0"
       inkscape:vp_z="55 : 27.5 : 1"
       inkscape:persp3d-origin="27.5 : 18.333333 : 1"
       id="perspective2505-3" />
    <inkscape:perspective
       id="perspective3472-4"
       inkscape:persp3d-origin="243.64561 : 166.7875 : 1"
       inkscape:vp_z="487.29123 : 250.18124 : 1"
       inkscape:vp_y="0 : 1000 : 0"
       inkscape:vp_x="0 : 250.18124 : 1"
       sodipodi:type="inkscape:persp3d" />
    <inkscape:perspective
       sodipodi:type="inkscape:persp3d"
       inkscape:vp_x="0 : 250.18124 : 1"
       inkscape:vp_y="0 : 1000 : 0"
       inkscape:vp_z="487.29123 : 250.18124 : 1"
       inkscape:persp3d-origin="243.64561 : 166.7875 : 1"
       id="perspective3472-5-7" />
    <inkscape:perspective
       id="perspective2505-0-5"
       inkscape:persp3d-origin="27.5 : 18.333333 : 1"
       inkscape:vp_z="55 : 27.5 : 1"
       inkscape:vp_y="0 : 1000 : 0"
       inkscape:vp_x="0 : 27.5 : 1"
       sodipodi:type="inkscape:persp3d" />
    <linearGradient
       osb:paint="solid"
       id="linearGradient3914-2">
      <stop
         id="stop3916-9"
         offset="0"
         style="stop-color:#ffffff;stop-opacity:1;" />
    </linearGradient>
    <linearGradient
       osb:paint="solid"
       id="linearGradient5469-0">
      <stop
         id="stop5471-41"
         offset="0"
         style="stop-color:#000000;stop-opacity:0;" />
    </linearGradient>
    <linearGradient
       osb:paint="solid"
       id="linearGradient5483-0">
      <stop
         id="stop5485-81"
         offset="0"
         style="stop-color:#030000;stop-opacity:1;" />
    </linearGradient>
    <linearGradient
       osb:paint="solid"
       id="linearGradient5489-65">
      <stop
         id="stop5491-2"
         offset="0"
         style="stop-color:#855e29;stop-opacity:0;" />
    </linearGradient>
    <inkscape:perspective
       sodipodi:type="inkscape:persp3d"
       inkscape:vp_x="0 : 250.18124 : 1"
       inkscape:vp_y="0 : 1000 : 0"
       inkscape:vp_z="487.29123 : 250.18124 : 1"
       inkscape:persp3d-origin="243.64561 : 166.7875 : 1"
       id="perspective3472-6-2" />
    <inkscape:perspective
       id="perspective2505-4-9"
       inkscape:persp3d-origin="27.5 : 18.333333 : 1"
       inkscape:vp_z="55 : 27.5 : 1"
       inkscape:vp_y="0 : 1000 : 0"
       inkscape:vp_x="0 : 27.5 : 1"
       sodipodi:type="inkscape:persp3d" />
    <linearGradient
       gradientUnits="userSpaceOnUse"
       y2="169.76271"
       x2="-109.80681"
       y1="169.76271"
       x1="-255.75251"
       id="linearGradient5493-9-9"
       xlink:href="#linearGradient5489-6-3"
       inkscape:collect="always" />
    <linearGradient
       gradientUnits="userSpaceOnUse"
       y2="169.76271"
       x2="-109.80681"
       y1="169.76271"
       x1="-255.75251"
       id="linearGradient5487-7-0"
       xlink:href="#linearGradient5483-3-7"
       inkscape:collect="always" />
    <linearGradient
       gradientUnits="userSpaceOnUse"
       y2="218.57628"
       x2="-70.755959"
       y1="218.57628"
       x1="-198.26098"
       id="linearGradient5473-4-7"
       xlink:href="#linearGradient5469-8-2"
       inkscape:collect="always" />
    <linearGradient
       gradientUnits="userSpaceOnUse"
       y2="229.81708"
       x2="240.15466"
       y1="229.81708"
       x1="134.22627"
       id="linearGradient3918-3-6"
       xlink:href="#linearGradient3914-0-0"
       inkscape:collect="always" />
    <linearGradient
       osb:paint="solid"
       id="linearGradient3914-0-0">
      <stop
         id="stop3916-6-6"
         offset="0"
         style="stop-color:#ffffff;stop-opacity:1;" />
    </linearGradient>
    <linearGradient
       osb:paint="solid"
       id="linearGradient5469-8-2">
      <stop
         id="stop5471-4-7"
         offset="0"
         style="stop-color:#000000;stop-opacity:0;" />
    </linearGradient>
    <linearGradient
       osb:paint="solid"
       id="linearGradient5483-3-7">
      <stop
         id="stop5485-8-2"
         offset="0"
         style="stop-color:#030000;stop-opacity:1;" />
    </linearGradient>
    <linearGradient
       osb:paint="solid"
       id="linearGradient5489-6-3">
      <stop
         id="stop5491-0-5"
         offset="0"
         style="stop-color:#000000;stop-opacity:0;" />
    </linearGradient>
    <inkscape:perspective
       sodipodi:type="inkscape:persp3d"
       inkscape:vp_x="0 : 27.5 : 1"
       inkscape:vp_y="0 : 1000 : 0"
       inkscape:vp_z="55 : 27.5 : 1"
       inkscape:persp3d-origin="27.5 : 18.333333 : 1"
       id="perspective2505-7-4" />
    <inkscape:perspective
       id="perspective3472-1-0"
       inkscape:persp3d-origin="243.64561 : 166.7875 : 1"
       inkscape:vp_z="487.29123 : 250.18124 : 1"
       inkscape:vp_y="0 : 1000 : 0"
       inkscape:vp_x="0 : 250.18124 : 1"
       sodipodi:type="inkscape:persp3d" />
    <inkscape:perspective
       sodipodi:type="inkscape:persp3d"
       inkscape:vp_x="0 : 27.5 : 1"
       inkscape:vp_y="0 : 1000 : 0"
       inkscape:vp_z="55 : 27.5 : 1"
       inkscape:persp3d-origin="27.5 : 18.333333 : 1"
       id="perspective2505-70" />
    <inkscape:perspective
       id="perspective3472-3"
       inkscape:persp3d-origin="243.64561 : 166.7875 : 1"
       inkscape:vp_z="487.29123 : 250.18124 : 1"
       inkscape:vp_y="0 : 1000 : 0"
       inkscape:vp_x="0 : 250.18124 : 1"
       sodipodi:type="inkscape:persp3d" />
  </defs>
  <g
     inkscape:groupmode="layer"
     id="layer3"
     inkscape:label="fondo">
    <g
       id="g2508"
       transform="translate(-15.875,-12.625)"
       style="fill:#ffd228;fill-opacity:1">
      <rect
         style="fill:#ffd228;fill-opacity:1;fill-rule:nonzero;stroke:none"
         id="rect3269"
         y="12.625"
         x="15.875"
         height="55"
         width="55" />
    </g>
  </g>
  <g
     id="g3161"
     transform="translate(-50.611367,6.25)">
    <g
       inkscape:label="fondo"
       id="layer3-2"
       inkscape:transform-center-x="37.75"
       inkscape:transform-center-y="2.625">
      <path
         inkscape:connector-curvature="0"
         id="path3985"
         d="m -17.509991,24.878431 c -1.741174,-0.378284 -3.356751,-1.658276 -4.122702,-3.266343 -1.153275,-2.421227 -0.558314,-5.213725 1.479062,-6.942109 1.228969,-1.042582 2.457564,-1.486891 4.110808,-1.486633 1.682029,2.63e-4 2.979924,0.5314 4.287496,1.754569 1.386348,1.296861 2.055949,3.278505 1.718877,5.086915 -0.08769,0.470451 -0.167181,0.97724 -0.176652,1.126198 -0.0095,0.148959 -0.04059,0.24747 -0.06914,0.218914 -0.02856,-0.02856 -0.22023,0.242781 -0.425944,0.602972 -0.79979,1.40038 -2.330192,2.515339 -3.989603,2.906585 -0.95,0.223985 -1.777769,0.223671 -2.812201,-0.0011 l 0,-5e-6 z m 3.592168,-1.512978 c 0.975235,-0.458389 1.827102,-1.286829 2.315193,-2.251525 0.459499,-0.908183 0.575658,-2.43266 0.258188,-3.388473 -0.464367,-1.398077 -1.522836,-2.502573 -2.916871,-3.043708 -0.992018,-0.38508 -2.670578,-0.386463 -3.670472,-0.003 -3.143264,1.205381 -4.11486,5.263087 -1.823445,7.615307 1.110548,1.140016 2.129272,1.534691 3.837407,1.486692 1.022791,-0.02874 1.300195,-0.08634 2,-0.415269 z"
         style="fill:#ffffff;fill-opacity:1;fill-rule:nonzero;stroke:#ffffff;stroke-width:0.012375;stroke-miterlimit:4;stroke-opacity:1;stroke-dasharray:none" />
      <g
         id="g3220"
         transform="translate(-12.138633,76.125)">
        <g
           inkscape:label="fondo"
           id="layer3-6">
          <path
             inkscape:connector-curvature="0"
             id="path3983-2"
             d="m 80.56041,-60.712519 c -0.413994,-0.631836 -1.732251,-3.370366 -2.374391,-4.93253 -1.955247,-4.756624 -2.749351,-8.960429 -2.003107,-10.604002 0.299218,-0.65902 0.596436,-0.845181 1.349384,-0.845181 0.994527,0 2.005965,0.666676 3.941637,2.598075 2.30271,2.297627 4.060451,4.669164 5.990516,8.082372 0.352931,0.624139 0.764681,1.338651 0.915,1.587808 l 0.273306,0.45301 -0.474201,-0.08896 c -1.182759,-0.221886 -4.579433,0.550375 -4.313472,0.980704 0.04762,0.07705 2.78e-4,0.103099 -0.110249,0.06069 -0.106528,-0.04087 -0.239086,-9.34e-4 -0.294573,0.08891 -0.06876,0.111261 -0.04524,0.128845 0.07387,0.05523 0.113187,-0.06996 0.142467,-0.05575 0.0831,0.04029 -0.05041,0.08157 -0.168872,0.118674 -0.263249,0.08246 -0.272776,-0.10468 -1.350372,0.936652 -1.947199,1.88166 -0.300797,0.476277 -0.569102,0.86596 -0.596234,0.86596 -0.02713,0 -0.139698,-0.137919 -0.250149,-0.306486 z"
             style="fill:#85c229;fill-opacity:1;fill-rule:nonzero;stroke:#000000;stroke-width:0;stroke-miterlimit:4;stroke-opacity:1;stroke-dasharray:none" />
          <path
             inkscape:connector-curvature="0"
             id="path3989-0"
             d="m 92.639317,-54.580681 c 0.259063,-0.459033 0.371232,-0.80265 0.312218,-0.956438 -0.06187,-0.16124 -0.04251,-0.209371 0.05899,-0.146642 0.294084,0.181752 0.602499,-1.326386 0.52737,-2.578819 -0.06243,-1.040657 -0.193745,-1.53055 -0.834032,-3.11137 -0.08333,-0.205747 -0.0066,-0.233634 0.643435,-0.233634 1.147635,0 5.617574,0.384122 7.100582,0.610186 4.69717,0.716016 7.55534,1.730062 8.37367,2.970885 0.31862,0.483104 0.3013,0.609075 -0.15517,1.128963 -1.42065,1.618039 -8.00242,3.023353 -14.194019,3.030652 l -2.237361,0.0026 0.404323,-0.71642 z"
             style="fill:#85c229;fill-opacity:1;fill-rule:nonzero;stroke:#000000;stroke-width:0;stroke-miterlimit:4;stroke-opacity:1;stroke-dasharray:none" />
          <path
             inkscape:connector-curvature="0"
             id="path3991-4"
             d="m 75.16428,-39.663362 c -0.483053,-0.338345 -0.683438,-0.990687 -0.680242,-2.214484 0.0049,-1.911562 0.748446,-4.492884 2.244177,-7.791971 1.002573,-2.211343 3.286611,-6.318316 3.518716,-6.327071 0.05048,-0.0019 0.269681,0.341984 0.487094,0.764195 0.217415,0.422211 0.459313,0.753358 0.537552,0.735882 0.07823,-0.01747 0.112606,0.04549 0.07637,0.139914 -0.03624,0.09443 0.08608,0.314451 0.271816,0.48894 0.185735,0.174489 0.337698,0.269385 0.337698,0.21088 0,-0.0585 0.08947,-0.03213 0.198789,0.0586 0.109333,0.09074 0.16925,0.212773 0.133147,0.271188 -0.107107,0.173303 0.741817,0.81204 1.63935,1.233463 0.52675,0.247327 1.325439,0.468164 2.15697,0.596401 l 1.320483,0.203644 -0.476784,0.750717 c -4.043508,6.366664 -8.689333,11.088702 -10.916628,11.095706 -0.295731,9.36e-4 -0.677562,-0.09627 -0.848512,-0.216012 l 0,0 z"
             style="fill:#85c229;fill-opacity:1;fill-rule:nonzero;stroke:#000000;stroke-width:0;stroke-miterlimit:4;stroke-opacity:1;stroke-dasharray:none" />
          <path
             inkscape:connector-curvature="0"
             id="path3993-9"
             d="m 83.159,-33.151378 c 0,-0.209552 0.182694,-2.500338 0.405987,-5.090641 l 0.405987,-4.709639 1.347371,-1.60798 c 1.314393,-1.568622 2.546225,-3.319534 3.266629,-4.643155 0.359771,-0.661017 0.540109,-0.796894 0.649565,-0.489418 0.05869,0.164878 1.133763,15.871101 1.133763,16.563696 l 0,0.358137 -3.60465,0 -3.604652,0 0,-0.381 z"
             style="fill:#85c229;fill-opacity:1;fill-rule:nonzero;stroke:#000000;stroke-width:0;stroke-miterlimit:4;stroke-opacity:1;stroke-dasharray:none" />
        </g>
        <g
           id="layer1-3"
           transform="matrix(0.17474598,0,0,0.17475113,26.347702,-130.28696)"
           style="fill:#85c229;fill-opacity:1">
          <path
             inkscape:connector-curvature="0"
             style="fill:#85c229;fill-opacity:1;stroke:none"
             id="path32-6"
             d="m 359.41706,389.22836 c 0,1.26285 2.3607,2.33744 3.28185,2.9352 1.26939,0.8245 2.32091,1.79466 3.38683,2.83215 1.1661,1.13368 1.83692,2.0736 2.84159,3.36257 0.58884,0.75578 2.01077,3.45325 2.75059,3.45325 1.00312,0 1.82252,-0.41911 1.82252,-1.45249 0,-1.40164 -4.22965,-6.13424 -5.26073,-7.13738 -1.13377,-1.10481 -5.65016,-5.28364 -7.33144,-5.28364 -0.6673,0 -1.49121,0.58264 -1.49121,1.29034 l 0,0 0,0 z m -40.26171,9.1945 c 0,0.78052 0.52394,1.29034 1.32542,1.29034 1.53693,0 2.45722,-2.10384 3.24713,-3.12897 1.52973,-1.98566 4.24081,-4.83017 6.59431,-5.84018 0.97025,-0.41499 3.41351,-1.62975 3.41351,-2.80603 0,-0.58538 -0.19656,-0.56615 -0.33146,-1.12955 -0.97574,-0.0783 -0.34543,-0.32156 -0.99409,-0.32156 -2.70233,0 -13.25482,9.41024 -13.25482,11.93595 l 0,0 0,0 z m 15.07735,7.42045 c 0,2.07636 1.93738,3.25677 3.27253,4.55672 0.40272,0.39301 3.85205,3.72398 3.85205,3.83255 0,1.42775 -7.45605,5.86078 -7.45605,8.71078 0,1.77542 1.22819,3.06438 2.98243,3.06438 2.84005,0 8.02838,-7.25968 8.94713,-7.25968 0.69706,0 6.93183,6.96561 7.95288,7.09753 2.32558,0.23773 3.97665,-0.77914 3.97665,-3.06575 0,-2.56556 -7.30309,-6.92164 -7.45591,-8.70941 l 6.79314,-6.2923 c 0.35221,-0.56753 0.33132,-0.50156 0.33132,-1.12818 0,-1.68609 -0.76042,-3.54946 -2.81663,-3.54946 -3.1873,0 -6.43641,5.4087 -8.78145,6.93677 -2.09035,-1.3618 -5.84208,-6.93677 -8.45001,-6.93677 -1.5804,0 -3.14808,1.07185 -3.14808,2.74282 l 0,0 0,0 z m 29.20871,33.27667 c 1.32597,-0.93718 2.16767,-1.63938 3.3071,-2.74833 0.86061,-0.83824 5.42652,-5.5461 5.42652,-6.4929 0,-1.16391 -0.3721,-1.77404 -1.65701,-1.77404 -0.8472,0 -2.29382,2.53395 -2.9391,3.26776 -1.99101,2.2646 -3.86969,4.16644 -6.43868,5.83055 -0.8201,0.53042 -3.37992,1.65174 -3.37992,2.67686 0,0.88633 0.427,1.61327 1.49108,1.61327 1.0844,0 3.25743,-1.71358 4.19001,-2.37317 l 0,0 0,0 z M 327.2739,414.39335 c 0,-4.93599 2.42026,-9.55867 5.01167,-12.05826 1.97422,-1.90458 2.42815,-2.30996 4.98641,-3.69512 5.61109,-3.03551 12.12936,-2.34293 17.74736,0.35453 3.26548,1.5693 5.7165,4.57596 7.40991,7.62659 3.78857,6.8227 1.67577,15.50054 -3.71589,20.79791 -3.59793,3.53572 -7.94781,4.82606 -12.71381,5.08302 -5.27837,-0.6541 -9.22129,-1.33431 -13.13361,-5.16409 -3.5436,-3.46838 -5.59204,-8.04708 -5.59204,-12.94458 l 0,0 0,0 z m 0.95289,16.49403 c 1.67705,1.63251 4.15939,3.70474 6.38477,4.75322 1.7019,0.80113 6.43502,2.46524 8.73391,2.46524 l 3.31389,0 c 12.62096,0 23.52734,-10.80776 23.52734,-23.06801 l 0,-1.93483 c 0,-3.60304 -1.45212,-6.38297 -2.46526,-8.89218 -0.9519,-2.35669 -3.13919,-4.87277 -4.86606,-6.55337 -3.39614,-3.3076 -9.50011,-6.81583 -16.19602,-6.81583 -7.51236,0 -14.9869,2.79092 -19.74894,8.67919 -2.88268,3.56457 -5.43557,8.58025 -5.43557,14.87254 0,6.14112 2.25051,12.11184 6.75194,16.49403 l 0,0 0,0 z m 4.68049,8.9925 c 0,-1.94306 -2.1245,-2.28523 -3.41336,-3.12896 -2.45115,-1.60364 -4.84248,-3.67175 -6.59685,-5.9982 -0.71004,-0.94268 -1.82324,-3.13172 -3.07908,-3.13172 -1.12927,0 -1.32541,0.93856 -1.32541,1.77405 0,0.9784 4.68896,6.10814 5.63325,6.7746 1.27178,0.8987 5.75727,4.83979 7.4559,4.83979 0.4998,0 1.32555,-0.65822 1.32555,-1.12956 l 0,0 0,0 z" />
        </g>
      </g>
    </g>
  </g>
</svg>
