<?xml version="1.0" encoding="UTF-8" standalone="no"?>
<!-- Created with Inkscape (http://www.inkscape.org/) -->

<svg
   xmlns:dc="http://purl.org/dc/elements/1.1/"
   xmlns:cc="http://creativecommons.org/ns#"
   xmlns:rdf="http://www.w3.org/1999/02/22-rdf-syntax-ns#"
   xmlns:svg="http://www.w3.org/2000/svg"
   xmlns="http://www.w3.org/2000/svg"
   xmlns:sodipodi="http://sodipodi.sourceforge.net/DTD/sodipodi-0.dtd"
   xmlns:inkscape="http://www.inkscape.org/namespaces/inkscape"
   id="svg3121"
   version="1.1"
   inkscape:version="0.91 r13725"
   width="55"
   height="55"
   sodipodi:docname="colorviewoff.svg">
  <metadata
     id="metadata3127">
    <rdf:RDF>
      <cc:Work
         rdf:about="">
        <dc:format>image/svg+xml</dc:format>
        <dc:type
           rdf:resource="http://purl.org/dc/dcmitype/StillImage" />
        <dc:title></dc:title>
      </cc:Work>
    </rdf:RDF>
  </metadata>
  <defs
     id="defs3125" />
  <sodipodi:namedview
     pagecolor="#ffffff"
     bordercolor="#666666"
     borderopacity="1"
     objecttolerance="10"
     gridtolerance="10"
     guidetolerance="10"
     inkscape:pageopacity="0"
     inkscape:pageshadow="2"
     inkscape:window-width="1366"
     inkscape:window-height="744"
     id="namedview3123"
     showgrid="false"
     inkscape:zoom="4.2909091"
     inkscape:cx="23.42161"
     inkscape:cy="27.5"
     inkscape:window-x="0"
     inkscape:window-y="24"
     inkscape:window-maximized="1"
     inkscape:current-layer="svg3121" />
  <rect
     width="42.763924"
     height="42.763924"
     x="6.1180377"
     y="6.1180387"
     id="rect2986"
     style="fill:#282828;fill-opacity:1;stroke:#282828;stroke-width:2.23607516;stroke-linecap:round;stroke-linejoin:miter;stroke-miterlimit:4;stroke-dasharray:none;stroke-opacity:1" />
  <g
     id="g4178"
     transform="translate(10.234694,8.2481139)">
    <rect
       transform="scale(1,-1)"
       y="-34.081635"
       x="-1.2346939"
       height="8.0816326"
       width="50.734695"
       id="rect4160"
       style="fill:none;stroke-width:0.097;stroke-miterlimit:4;stroke-dasharray:none" />
    <path
       inkscape:connector-curvature="0"
       id="path4166"
       d="M 17.325624,18.170338 C 17.100994,17.810647 15.662291,16.716676 14.808109,16.256051 13.056677,15.311577 11.353515,14.933428 9.3596427,15.046339 L 8.2032252,15.111827 8.019793,14.528972 C 7.9036243,14.159846 7.8159682,13.369884 7.7807486,12.374688 7.7113667,10.414175 7.9358818,9.3291479 8.7562344,7.6604028 10.159664,4.8055747 12.83562,2.8318958 15.993514,2.3224727 c 1.131558,-0.1825399 3.020906,-0.077476 4.102793,0.2281513 3.269974,0.9237492 5.923164,3.5766924 6.850212,6.8495747 0.429065,1.5147883 0.418855,3.7880783 -0.02377,5.2923283 l -0.120547,0.409674 -1.304479,-0.05854 c -2.795864,-0.12547 -5.273209,0.770088 -7.321032,2.646546 -0.643666,0.589803 -0.746387,0.647754 -0.851069,0.480132 z"
       style="fill:#ff0000;stroke-width:0;stroke-miterlimit:4;stroke-dasharray:none" />
    <path
       inkscape:connector-curvature="0"
       id="path4168"
       d="m 23.059572,34.600871 c -1.673245,-0.333876 -3.497547,-1.285883 -4.81571,-2.513069 -0.59192,-0.551065 -0.602084,-0.570875 -0.422067,-0.822562 1.934963,-2.70532 2.583047,-5.549226 1.926036,-8.451776 -0.08385,-0.370408 -0.18657,-0.761862 -0.228279,-0.869898 -0.05616,-0.145458 -0.01957,-0.196429 0.141004,-0.196429 0.313229,0 1.669424,-0.477324 2.388812,-0.840761 1.928861,-0.974469 3.474797,-2.574124 4.463466,-4.618566 l 0.439027,-0.907852 0.831917,0.241712 c 1.92544,0.559433 3.727308,1.800329 4.982907,3.43159 1.506891,1.957736 2.238353,4.558121 1.963828,6.981509 -0.257667,2.274568 -1.202638,4.213933 -2.860465,5.870532 -1.413623,1.412575 -3.050977,2.309261 -4.905234,2.686316 -1.029083,0.209261 -2.880898,0.213649 -3.905242,0.0092 l 0,5e-6 z"
       style="fill:#0000ff;stroke-width:0;stroke-miterlimit:4;stroke-dasharray:none" />
    <path
       inkscape:connector-curvature="0"
       id="path4170"
       d="M 8.4677355,34.689804 C 5.2562742,34.149957 2.393057,31.94586 1.0471012,28.977418 -0.04037128,26.57905 -0.0381377,23.420503 1.0527321,21.014641 2.2538327,18.365671 4.7219988,16.259572 7.4630122,15.544716 L 8.08584,15.382283 8.2918017,15.898894 c 0.7819291,1.961302 2.7015553,4.022229 4.6657293,5.009169 0.694772,0.349102 2.073677,0.839074 2.361367,0.839074 0.176373,0 0.175331,0.05903 -0.01516,0.858587 -0.721715,3.029247 -0.09997,5.906176 1.866651,8.637349 0.160436,0.222807 0.135676,0.268959 -0.451653,0.841836 -1.285925,1.254288 -3.071372,2.18178 -4.858049,2.523628 -0.764498,0.146272 -2.7266586,0.193269 -3.3929485,0.08127 z"
       style="fill:#00ff00;stroke-width:0;stroke-miterlimit:4;stroke-dasharray:none" />
    <path
       inkscape:connector-curvature="0"
       id="path4172"
       d="M 14.770303,21.415202 C 13.062859,20.927222 11.239411,19.729627 10.014435,18.291666 9.3235255,17.48063 8.2404825,15.538668 8.3939692,15.386073 c 0.051459,-0.05116 0.859388,-0.08962 1.7953988,-0.08547 1.599832,0.0071 1.765751,0.02881 2.768163,0.362285 0.58648,0.195104 1.414911,0.559096 1.840958,0.808873 0.887952,0.520573 2.122275,1.492288 2.363782,1.860874 0.152437,0.232648 0.134849,0.289077 -0.245252,0.786881 -0.456739,0.598172 -1.26561,2.10204 -1.26561,2.353045 0,0.196176 0.0078,0.196684 -0.881106,-0.05736 z"
       style="fill:#ffff00;stroke-width:0;stroke-miterlimit:4;stroke-dasharray:none" />
    <path
       inkscape:connector-curvature="0"
       id="path4174"
       d="m 19.19855,21.075133 c -0.109464,-0.304411 -0.492417,-0.997512 -0.851006,-1.540225 -0.512267,-0.775299 -0.62906,-1.029899 -0.545021,-1.188108 0.170818,-0.321579 1.866421,-1.610896 2.669663,-2.029982 0.40444,-0.211014 1.164682,-0.523953 1.689427,-0.69542 0.865593,-0.282844 1.111923,-0.312528 2.655919,-0.32005 0.936011,-0.0046 1.740111,0.02974 1.786891,0.07622 0.116761,0.116015 -0.351802,1.09513 -0.978671,2.045044 -1.15756,1.754086 -2.934916,3.140233 -4.881805,3.807284 -1.372903,0.47039 -1.318641,0.475824 -1.545397,-0.154761 z"
       style="fill:#ff00ff;stroke-width:0;stroke-miterlimit:4;stroke-dasharray:none" />
    <path
       inkscape:connector-curvature="0"
       id="path4176"
       d="m 16.996856,30.642546 c -0.606881,-0.846294 -1.192918,-2.09358 -1.483276,-3.15692 -0.315068,-1.153834 -0.343562,-3.509728 -0.05719,-4.728284 l 0.197842,-0.841837 1.839022,0 1.839022,0 0.188873,0.782527 c 0.536074,2.221028 0.253512,4.63421 -0.782374,6.681759 -0.311902,0.616512 -1.146757,1.908163 -1.233334,1.908163 -0.02517,0 -0.254034,-0.290434 -0.508589,-0.645408 z"
       style="fill:#00ffff;stroke-width:0;stroke-miterlimit:4;stroke-dasharray:none" />
  </g>
</svg>
